<?xml version="1.0" standalone="no"?>
<!DOCTYPE svg PUBLIC "-//W3C//DTD SVG 1.1//EN" "http://www.w3.org/Graphics/SVG/1.1/DTD/svg11.dtd" >
<svg xmlns="http://www.w3.org/2000/svg" xmlns:xlink="http://www.w3.org/1999/xlink" version="1.1">
<metadata></metadata>
<defs>
<font id="aniversitalic" horiz-adv-x="1107" >
<font-face units-per-em="2048" ascent="1546" descent="-502" />
<missing-glyph horiz-adv-x="497" />
<glyph unicode="&#xfb01;" horiz-adv-x="1048" d="M-281 -408l62 109l14 4q29 -29 103 -29q77 0 138 60.5t81 185.5l151 948h-149l-10 11l20 120l10 11h152l26 170q27 175 133.5 269.5t268.5 94.5q55 0 105.5 -10t82.5 -24t56.5 -28t35.5 -24l11 -10l2 -14l-80 -109l-14 -2q-8 8 -23 20t-69 32t-117 20q-43 0 -78 -10.5 t-69 -35.5t-58 -74.5t-35 -121.5l-23 -143h447l72 10l10 -10l-160 -1002l-10 -10h-137l-11 10l136 860h-369l-154 -960q-62 -381 -376 -381q-51 0 -93.5 12.5t-59.5 24.5l-17 12z" />
<glyph unicode="&#xfb02;" horiz-adv-x="1118" d="M-281 -408l62 109l14 4q29 -29 103 -29q77 0 138 60.5t81 185.5l151 948h-149l-10 11l20 120l10 11h152l26 170q27 175 133.5 269.5t268.5 94.5q159 0 262 -73l94 14l10 -10l-194 -1217q-6 -34 -6 -55q0 -68 76 -68h6l8 -12l-41 -121l-10 -10h-17q-14 0 -31.5 2.5 t-45.5 13.5t-50 28.5t-38.5 52.5t-16.5 81q0 30 6 64l174 1099q-79 62 -196 62q-43 0 -78 -10.5t-69 -35.5t-58 -74.5t-35 -121.5l-23 -143h293l11 -11l-45 -120l-11 -11h-270l-154 -960q-62 -381 -376 -381q-51 0 -93.5 12.5t-59.5 24.5l-17 12z" />
<glyph unicode="&#xfb03;" horiz-adv-x="1675" d="M-279 -410l62 109l12 4q29 -27 103 -27q77 0 138 60.5t81 185.5l151 948h-149l-10 11l20 120l10 11h152l16 108q27 175 133.5 270t268.5 95q49 0 94.5 -9.5t75.5 -23.5t52.5 -28t32.5 -24l11 -9q109 155 321 155q55 0 105.5 -10t82.5 -24t56.5 -28t35.5 -24l11 -10l2 -14 l-80 -109l-14 -2q-8 8 -23 20t-69 32t-117 20q-90 0 -151.5 -52.5t-85.5 -189.5l-25 -143h487l68 10l10 -10l-159 -1002l-11 -10h-137l-10 10l135 860h-406l-143 -899q-30 -184 -127 -282.5t-264 -98.5q-49 0 -94.5 11t-75.5 27t-52.5 31.5t-32.5 26.5l-11 11 q-100 -168 -307 -168q-48 0 -90 11.5t-60 23.5l-18 12zM254 -162q3 -4 9 -11t27 -24t44.5 -30t60.5 -24t76 -11q85 0 149.5 60t84.5 186l141 886h-422l-154 -960q-4 -28 -16 -72zM446 1012h422l27 170l14 67q-2 3 -7 9t-22.5 21t-39.5 26t-60 20.5t-82 9.5q-43 0 -77.5 -10 t-68.5 -35t-58 -74.5t-35 -121.5z" />
<glyph unicode="&#xfb04;" horiz-adv-x="1695" d="M-279 -410l62 109l12 4q29 -27 103 -27q77 0 138 60.5t81 185.5l151 948h-149l-10 11l20 120l10 11h152l16 108q27 175 133.5 270t268.5 95q49 0 94.5 -9.5t75.5 -23.5t52.5 -28t32.5 -24l11 -9q109 155 321 155q157 0 260 -73l95 14l10 -10l-195 -1217q-6 -35 -6 -55 q0 -68 76 -68h6l8 -12l-41 -121l-10 -10h-16q-14 0 -31.5 2.5t-46 13.5t-50.5 28.5t-38.5 52.5t-16.5 81q0 24 7 64l174 1099q-77 62 -195 62q-43 0 -77.5 -10.5t-68.5 -35.5t-58 -74.5t-35 -121.5l-23 -143h279l10 -11l-45 -120l-11 -11h-256l-143 -899 q-30 -184 -127 -282.5t-264 -98.5q-49 0 -94.5 11t-75.5 27t-52.5 31.5t-32.5 26.5l-11 11q-100 -168 -307 -168q-48 0 -90 11.5t-60 23.5l-18 12zM254 -162q3 -4 9 -11t27 -24t44.5 -30t60.5 -24t76 -11q85 0 149.5 60t84.5 186l141 886h-422l-154 -960q-4 -28 -16 -72z M446 1012h422l27 170l14 67q-2 3 -7 9t-22.5 21t-39.5 26t-60 20.5t-82 9.5q-43 0 -77.5 -10t-68.5 -35t-58 -74.5t-35 -121.5z" />
<glyph horiz-adv-x="0" />
<glyph horiz-adv-x="682" />
<glyph unicode=" "  horiz-adv-x="497" />
<glyph unicode="&#x09;" horiz-adv-x="497" />
<glyph unicode="&#xa0;" horiz-adv-x="497" />
<glyph unicode="!" horiz-adv-x="561" d="M96 10l33 187l12 10h172l9 -10l-33 -187l-13 -10h-172zM195 391l139 1061l10 10l180 25l11 -10l-218 -1086l-12 -10h-100z" />
<glyph unicode="&#x22;" horiz-adv-x="690" d="M201 1026l35 346l10 10h149l11 -10l-76 -346l-11 -10h-108zM516 1026l35 346l10 10h150l10 -10l-76 -346l-10 -10h-109z" />
<glyph unicode="#" horiz-adv-x="1310" d="M66 377l20 121l10 10h226l124 362h-192l-10 11l20 120l10 11h222l122 354l13 8l129 21l8 -13l-129 -370h295l123 354l12 8l129 21l8 -13l-129 -370h232l8 -13l-53 -120l-13 -9h-223l-125 -362h227l9 -12l-54 -121l-12 -8h-219l-125 -359l-12 -8h-121l-8 12l123 355h-295 l-125 -359l-12 -8h-121l-8 12l122 355h-196zM465 508h295l125 362h-295z" />
<glyph unicode="$" horiz-adv-x="960" d="M33 96l78 107l14 2q4 -3 11.5 -8t32.5 -17.5t51.5 -22.5t67 -18.5t81.5 -9.5l63 371q-45 17 -76 30.5t-68 36.5t-59 48.5t-37.5 62.5t-15.5 82q0 75 29.5 138t80.5 105.5t114.5 68t134.5 32.5l22 137l10 10l97 15l10 -11l-27 -149q71 -6 135.5 -25.5t93.5 -36.5l29 -16 l2 -14l-76 -109l-14 -2q-83 50 -192 60l-60 -351q56 -21 93.5 -40t77.5 -50.5t60.5 -76t20.5 -101.5q0 -90 -31 -158t-85 -107.5t-112.5 -60.5t-127.5 -28l-23 -140l-10 -10h-94l-10 10l22 138q-81 4 -158 27.5t-114 44.5l-37 22zM332 784q0 -44 32.5 -73.5t94.5 -55.5 l51 303q-83 -14 -130.5 -58.5t-47.5 -115.5zM485 137q177 29 177 185q0 46 -31.5 76.5t-91.5 56.5z" />
<glyph unicode="%" horiz-adv-x="1388" d="M37 14l1204 1375l14 6l127 -37l7 -12l-1174 -1340l-14 -6h-158zM186 926q0 13 4 41l33 207q17 107 85.5 164t170.5 57q95 0 158 -47t63 -131q0 -15 -4 -43l-32 -207q-17 -105 -88 -164.5t-173 -59.5q-94 0 -155.5 48.5t-61.5 134.5zM309 954q0 -46 26 -71t75 -25 q54 0 89 33t44 92l26 158q4 20 4 43q0 46 -25 71t-71 25q-57 0 -92.5 -33.5t-44.5 -93.5l-29 -170q-2 -10 -2 -29zM748 158q0 13 4 41l32 207q17 107 85.5 164t170.5 57q95 0 158.5 -47t63.5 -131q0 -8 -5 -43l-32 -207q-17 -105 -87.5 -164.5t-172.5 -59.5 q-94 0 -155.5 48.5t-61.5 134.5zM870 186q0 -46 26 -71t75 -25q54 0 89 33t44 92l26 158q5 25 5 43q0 46 -25.5 71t-71.5 25q-57 0 -92.5 -33.5t-44.5 -93.5l-29 -170q-2 -10 -2 -29z" />
<glyph unicode="&#x26;" horiz-adv-x="1165" d="M92 313q0 82 24.5 159.5t85.5 149t150 107.5q-62 35 -98.5 99t-36.5 137q0 92 27.5 164.5t73.5 119.5t111 77.5t134.5 43t149.5 12.5h123l8 -12l-47 -127l-13 -8h-98q-65 0 -120 -14.5t-99 -44t-69 -80.5t-25 -119q0 -84 54.5 -126t188.5 -42h170l54 209l10 10l108 16 l11 -10l-37 -225h198l9 -12l-60 -127l-12 -8h-160l-106 -631l-10 -11q-14 -5 -40 -12.5t-106.5 -20t-161.5 -12.5q-186 0 -288.5 92.5t-102.5 245.5zM242 313q0 -68 38 -112.5t90.5 -61t118.5 -16.5q34 0 78 5.5t71 11.5l28 5l86 517h-152q-166 0 -262 -101t-96 -248z" />
<glyph unicode="'" horiz-adv-x="374" d="M201 1026l35 346l10 10h149l11 -10l-76 -346l-11 -10h-108z" />
<glyph unicode="(" horiz-adv-x="620" d="M137 395q0 157 18 297.5t47 239.5t64 183t70 136t64 89t47 52l18 15h14l86 -88l-2 -14q-93 -93 -156 -255t-87.5 -320.5t-24.5 -313.5q0 -115 15 -217t36.5 -165t42.5 -109t36 -65l15 -20v-14l-86 -90h-16q-8 7 -21.5 21t-48.5 68.5t-61.5 123t-48 188t-21.5 258.5z" />
<glyph unicode=")" horiz-adv-x="622" d="M74 -176l2 14q93 93 156 255t87.5 320.5t24.5 313.5q0 115 -15 217t-36 165t-42.5 109t-36.5 66l-15 19v14l86 90h16q8 -7 21.5 -21t48.5 -68.5t61.5 -123t48 -188t21.5 -258.5q0 -157 -18 -297.5t-47 -239.5t-64 -183t-70 -136t-64 -89t-47 -52l-18 -15h-14z" />
<glyph unicode="*" horiz-adv-x="1099" d="M178 1090l64 110l14 2l188 -158q25 -22 42 -29t40 -7l-2 -17q-54 -59 -116 -59t-123 53l-105 90zM217 750l2 14l232 84q62 23 73 53l11 -10q12 -35 12 -60q0 -100 -125 -147l-129 -49l-14 6zM477 1204q0 19 4 51l23 138l12 8h127l8 -12l-41 -240q-6 -27 -6 -45 q0 -31 14 -45l-16 -6q-125 20 -125 151zM582 516l39 229q6 27 6 56t-13 45l17 6q125 -20 125 -152q0 -19 -4 -51l-23 -135l-12 -10h-127zM686 1071q0 100 125 150l129 49l14 -6l64 -111l-4 -12l-232 -84q-62 -23 -73 -53l-11 10q-12 24 -12 57zM707 897l2 16q52 60 116 60 q59 0 123 -53l103 -89l4 -16l-64 -110l-14 -3l-189 158q-46 37 -81 37z" />
<glyph unicode="+" horiz-adv-x="1126" d="M178 469l25 125l10 10h250l49 295l10 10l140 21l10 -10l-54 -316h287l8 -12l-53 -125l-12 -8h-254l-55 -334l-11 -10h-135l-10 10l55 334h-250z" />
<glyph unicode="," horiz-adv-x="487" d="M-59 -227l163 432l13 8h200l9 -12l-287 -459l-14 -6l-76 24z" />
<glyph unicode="-" horiz-adv-x="827" d="M150 459l24 143l10 10h500l8 -12l-59 -143l-12 -8h-461z" />
<glyph unicode="." horiz-adv-x="468" d="M51 10l35 193l12 10h187l10 -10l-35 -193l-12 -10h-187z" />
<glyph unicode="/" horiz-adv-x="655" d="M-33 -143l588 1507l10 10l146 21l10 -11l-594 -1527l-10 -11h-140z" />
<glyph unicode="0" horiz-adv-x="1120" d="M106 299q0 27 7 74l55 329q18 103 64.5 181.5t111.5 124t138 68t153 22.5q73 0 140 -18.5t123.5 -56t90 -101.5t33.5 -146q0 -34 -6 -74l-55 -329q-17 -103 -64 -182t-113 -124.5t-141 -68.5t-156 -23q-58 0 -112 11.5t-103.5 36.5t-86 62t-58 92t-21.5 122zM268 336 q0 -106 60.5 -161.5t165.5 -55.5q124 0 208.5 73.5t108.5 215.5l43 260q6 38 6 69q0 105 -61.5 161t-169.5 56q-122 0 -205.5 -73.5t-106.5 -212.5l-43 -260q-6 -40 -6 -72z" />
<glyph unicode="1" horiz-adv-x="868" d="M16 10l21 123l10 10h277l129 783h-238l-10 10l-12 127l10 10h418l10 -10l-152 -920h279l8 -12l-55 -123l-13 -8h-671z" />
<glyph unicode="2" horiz-adv-x="1021" d="M66 10v90q64 31 145.5 80.5t175 121.5t170 147.5t127.5 162.5t51 162q0 80 -50.5 130t-129.5 50q-46 0 -95 -17.5t-86 -43t-67 -51t-45 -42.5l-16 -18h-10l-99 80v10q7 9 20 24.5t56.5 54.5t90 68.5t118.5 54t145 24.5q65 0 123.5 -17t107.5 -51.5t78 -94t29 -136.5 q0 -69 -25 -139.5t-65 -129t-88 -113t-96 -95t-88 -71.5t-65 -47l-25 -16l-99 -45h516l9 -12l-56 -123l-12 -8h-735z" />
<glyph unicode="3" horiz-adv-x="991" d="M-82 -94l2 14l109 74l14 -2q3 -7 9.5 -19t30.5 -43t53 -54.5t78 -42.5t105 -19q119 0 210.5 69.5t111.5 188.5l6 37q4 28 4 43q0 95 -75.5 147.5t-213.5 52.5h-81l-9 13l54 122l12 9h51q170 0 250 74.5t80 201.5q0 91 -60 136.5t-157 45.5q-51 0 -100 -16t-83 -39 t-60.5 -45.5t-38.5 -38.5l-13 -16h-10l-99 86v10q6 8 17.5 22t51 49t83.5 61.5t113.5 48.5t142.5 22q174 0 273.5 -82.5t99.5 -231.5q0 -72 -24.5 -145t-79.5 -136.5t-130 -86.5q78 -29 122 -91.5t44 -140.5q0 -15 -4 -47l-14 -84q-30 -180 -159 -281.5t-312 -101.5 q-61 0 -116.5 13t-95.5 34t-73.5 46t-54.5 50t-36 46t-22 34z" />
<glyph unicode="4" horiz-adv-x="1071" d="M-4 172l772 885l14 6l115 20l10 -10l-145 -864h235l9 -12l-54 -123l-12 -8h-205l-59 -365l-10 -10l-142 -23l-10 10l64 388h-562l-10 10zM201 209h403l86 498l15 69l-43 -59l-418 -469z" />
<glyph unicode="5" horiz-adv-x="952" d="M-100 -94l2 14l108 74l15 -2q4 -7 11.5 -19t34.5 -43t57.5 -54.5t80 -42.5t102.5 -19q119 0 203.5 68t108.5 190l10 51q6 37 6 61q0 98 -67 151.5t-169 53.5q-58 0 -117 -13.5t-88 -27.5l-30 -14h-10l-47 84l108 647l12 8h641l9 -12l-54 -123l-12 -8h-461l-71 -418 q68 20 131 20q75 0 142.5 -20t122.5 -58.5t87.5 -101.5t32.5 -143q0 -24 -8 -78l-15 -82q-30 -175 -156.5 -277t-293.5 -102q-88 0 -164.5 24.5t-122.5 59t-79 69t-46 59.5z" />
<glyph unicode="6" horiz-adv-x="1105" d="M129 297q0 35 6 76l105 628q29 177 163 289.5t316 112.5q53 0 102 -12.5t85.5 -32.5t67.5 -44t52 -47.5t36 -43.5t22 -33l6 -12l-3 -15l-108 -71h-16q-3 7 -9 18t-28.5 40t-49 51.5t-70 40.5t-91.5 18q-54 0 -104 -15.5t-95.5 -48.5t-78.5 -90.5t-46 -134.5l-24 -154 l-31 -98q4 6 12 17t37 38t62 48t86.5 38t111.5 17q67 0 128.5 -18.5t113.5 -55.5t83 -100.5t31 -145.5q0 -32 -8 -90l-16 -94q-35 -204 -159 -301t-308 -97q-73 0 -138.5 18.5t-121 56t-88.5 101.5t-33 146zM291 336q0 -106 60 -161.5t163 -55.5q123 0 204.5 73t108.5 216 l7 32q6 37 6 70q0 105 -61.5 162t-160.5 57q-82 0 -152.5 -19t-99.5 -38l-30 -19l-39 -245q-6 -38 -6 -72z" />
<glyph unicode="7" horiz-adv-x="909" d="M20 -279l693 1209h-570l-10 10l-16 123l10 10h786l11 -10v-80l-746 -1298l-12 -9l-137 33z" />
<glyph unicode="8" horiz-adv-x="1091" d="M94 311q0 61 14 117t36 95.5t49 73.5t54 55.5t49 36.5t36 21l14 7q-5 3 -13 9t-28 28t-35.5 47.5t-28 68t-12.5 88.5q0 203 128 324t317 121q156 0 253 -85t97 -233q0 -128 -65 -239t-160 -146q69 -32 107 -101.5t38 -156.5q0 -204 -129.5 -335.5t-337.5 -131.5 q-73 0 -140 20.5t-122 60t-88 105.5t-33 150zM250 338q0 -105 61.5 -162t169.5 -57q131 0 219 85t88 218q0 95 -65.5 154t-165.5 59q-126 0 -216.5 -83t-90.5 -214zM385 967q0 -89 54 -143t151 -54q117 0 197.5 83.5t80.5 213.5q0 88 -54.5 140.5t-149.5 52.5 q-124 0 -201.5 -78t-77.5 -215z" />
<glyph unicode="9" horiz-adv-x="1099" d="M16 -104l2 14l107 72h16q3 -7 10 -18t30.5 -40t51 -51.5t72 -40.5t92.5 -18q120 0 206.5 69t111.5 219l24 154l31 98q-4 -6 -12 -17t-37 -38t-62 -47.5t-86.5 -37.5t-111.5 -17q-65 0 -125 17.5t-111.5 54t-82.5 100t-31 147.5q0 32 8 90l16 99q34 204 156 298.5 t305 94.5q73 0 138.5 -18.5t121 -56t88.5 -101.5t33 -146q0 -36 -6 -76l-105 -628q-30 -180 -157.5 -291t-315.5 -111q-71 0 -136 23.5t-107 56.5t-74 66t-46 56zM272 557q0 -96 51 -154.5t164 -58.5q82 0 152.5 19t100.5 38l30 19l39 246q6 37 6 71q0 106 -60 161.5 t-163 55.5q-130 0 -203.5 -67.5t-101.5 -210.5l-8 -49q-7 -44 -7 -70z" />
<glyph unicode=":" horiz-adv-x="468" d="M51 10l35 193l12 10h187l10 -10l-35 -193l-12 -10h-187zM176 809l35 192l12 11h187l10 -11l-35 -192l-12 -10h-187z" />
<glyph unicode=";" horiz-adv-x="487" d="M-59 -227l163 432l13 8h200l9 -12l-287 -459l-14 -6l-76 24zM176 809l35 192l12 11h187l10 -11l-35 -192l-12 -10h-187z" />
<glyph unicode="&#x3c;" horiz-adv-x="1126" d="M88 430l33 160l12 12l797 416l14 -4v-146l-6 -14l-682 -354l686 -340l8 -13l-28 -143l-13 -8l-815 420z" />
<glyph unicode="=" horiz-adv-x="1126" d="M180 285l23 129l10 10h688l8 -12l-57 -129l-12 -9h-650zM240 645l22 129l10 10h689l8 -12l-58 -129l-12 -8h-649z" />
<glyph unicode="&#x3e;" horiz-adv-x="1126" d="M141 866l29 144l12 8l815 -420l7 -14l-33 -160l-13 -12l-796 -416l-15 4v145l7 15l682 354l-686 340z" />
<glyph unicode="?" horiz-adv-x="962" d="M172 1147q27 166 145.5 259t278.5 93q154 0 252 -81t98 -222q0 -19 -4 -59l-31 -205q-50 -333 -391 -361l-47 -180l-12 -10h-99l-10 10l49 309l11 11l137 22q83 13 135 76t66 158l20 135q4 40 4 59q0 86 -45 134t-135 48q-106 0 -175 -58t-89 -169l-13 -8l-137 27z M260 10l33 187l12 10h172l8 -10l-32 -187l-13 -10h-172z" />
<glyph unicode="@" horiz-adv-x="1820" d="M106 207q0 126 11.5 242t40.5 238t73.5 225t116.5 195.5t164 156.5t219.5 101.5t280.5 37.5q706 0 706 -619q0 -159 -16.5 -285t-57 -235.5t-105 -183.5t-163 -119t-229.5 -53l-12 8l-84 221q-3 -7 -8.5 -17.5t-29 -38.5t-53.5 -49.5t-84 -39t-118 -17.5q-68 0 -120 26.5 t-82.5 71.5t-46 99t-15.5 115q0 191 37.5 338.5t102 235t145 131.5t173.5 44q77 0 166.5 -19.5t139.5 -38.5l51 -20l8 -12l-115 -735l49 -156q47 14 87 39t69 55.5t52.5 73t38.5 83t26.5 93t17.5 96t9 99.5t4 96t1 92q0 249 -141.5 361t-415.5 112q-183 0 -323.5 -74 t-229.5 -210t-134.5 -323t-45.5 -419q0 -137 34 -233.5t104 -155.5t168 -86t233 -28l10 -11l-37 -127l-10 -10q-327 0 -494.5 160.5t-167.5 468.5zM655 326q0 -95 36 -149t128 -54q37 0 93.5 12.5t93.5 25.5l38 13l97 668q-9 5 -25 12.5t-66 20t-100 12.5q-34 0 -71 -15.5 t-77.5 -56.5t-72.5 -101.5t-53 -161.5t-21 -226z" />
<glyph unicode="A" d="M-45 10l629 1352l10 10l190 23l11 -11l200 -1374l-10 -10h-145l-11 10l-45 332h-503l-150 -332l-10 -10h-156zM348 489h416l-86 639l-8 86l-29 -81z" />
<glyph unicode="B" horiz-adv-x="1130" d="M109 10l217 1362l10 10h235q180 0 242 -12q97 -20 148 -61q88 -66 88 -197q0 -137 -55.5 -233.5t-168.5 -139.5q73 -33 116.5 -102t43.5 -158q0 -106 -27.5 -189.5t-73.5 -137t-109.5 -88.5t-130.5 -49.5t-142 -14.5h-383zM295 150h209q58 0 109.5 14.5t100 47.5t77 96 t28.5 149q0 107 -66.5 157t-168.5 50h-207zM401 813h179q147 0 227 72q33 30 55.5 83t22.5 103q0 80 -47 119q-53 43 -176 43h-195z" />
<glyph unicode="C" horiz-adv-x="1187" d="M129 387q0 47 8 88l68 422q38 244 175.5 375t358.5 131q80 0 152.5 -17t118.5 -41.5t81 -49t51 -41.5l15 -17v-16l-100 -103h-15q-4 5 -12 14t-36.5 31t-61 39t-86 31t-111.5 14q-151 0 -243.5 -92t-120.5 -272l-62 -389q-6 -41 -6 -76q0 -129 73.5 -208t223.5 -79 q49 0 93 10.5t75.5 27.5t58.5 37t44.5 40.5t29.5 37.5t17 28l6 10l14 6l129 -49l6 -15q-5 -12 -15 -31.5t-50 -69t-89 -88t-134 -69.5t-183 -31q-210 0 -341.5 111.5t-131.5 300.5z" />
<glyph unicode="D" horiz-adv-x="1273" d="M109 10l217 1362l10 10h420q194 0 316 -106t122 -297q0 -49 -8 -96l-62 -387q-40 -247 -182.5 -371.5t-382.5 -124.5h-440zM297 156h274q149 0 254 90t133 268l56 348q6 47 6 84q0 138 -80.5 209.5t-220.5 71.5h-252z" />
<glyph unicode="E" horiz-adv-x="987" d="M109 10l217 1362l10 10h655l8 -12l-22 -135l-12 -8h-498l-68 -422h432l9 -12l-58 -136l-12 -8h-395l-78 -493h500l8 -13l-39 -135l-12 -8h-635z" />
<glyph unicode="F" horiz-adv-x="933" d="M109 10l217 1362l10 10h633l10 -10l-23 -135l-10 -10h-479l-72 -443h453l8 -12l-57 -135l-13 -8h-415l-99 -619l-10 -10h-143z" />
<glyph unicode="G" horiz-adv-x="1243" d="M129 377q0 51 8 98l68 422q38 243 182 374.5t373 131.5q79 0 150 -17t116 -41.5t78.5 -49t47.5 -41.5l15 -17v-16l-100 -103h-14q-4 5 -11 14t-34 31t-58 39t-83.5 31t-110.5 14q-159 0 -258 -92.5t-127 -271.5l-62 -389q-8 -58 -8 -86q0 -126 68 -201.5t211 -75.5 q155 0 252 90.5t126 272.5l9 53h-226l-10 10v135l10 10h404l10 -10l-35 -217q-38 -244 -176.5 -372t-368.5 -128q-204 0 -325 108t-121 294z" />
<glyph unicode="H" horiz-adv-x="1370" d="M109 10l215 1354l10 10l147 21l11 -11l-93 -581h660l90 561l10 10l148 21l10 -11l-219 -1374l-11 -10h-143l-10 10l100 637h-659l-103 -637l-10 -10h-143z" />
<glyph unicode="I" horiz-adv-x="544" d="M109 10l215 1354l10 10l147 21l11 -11l-220 -1374l-10 -10h-143z" />
<glyph unicode="J" horiz-adv-x="733" d="M-57 57l63 121l14 4q8 -6 21.5 -14.5t51.5 -22.5t71 -14q66 0 121 54.5t75 176.5l160 1002l10 10l148 21l10 -11l-166 -1038q-60 -371 -366 -371q-53 0 -113 19t-96 49z" />
<glyph unicode="K" horiz-adv-x="1132" d="M109 10l215 1354l10 10l147 21l11 -11l-93 -581h78l15 8l466 551l13 8l217 25l4 -13l-514 -581l-74 -72l45 -74l221 -424q46 -84 134 -84l20 3l10 -11l-41 -131l-10 -10q-22 -4 -47 -4q-121 0 -207 156l-258 501l-14 8h-82l-103 -649l-10 -10h-143z" />
<glyph unicode="L" horiz-adv-x="903" d="M109 10l215 1354l10 10l147 21l11 -11l-197 -1228h534l11 -11l-56 -135l-10 -10h-655z" />
<glyph unicode="M" horiz-adv-x="1574" d="M109 10l215 1354l10 10l160 21l10 -11l280 -839l525 821l12 10l190 19l11 -11l-219 -1374l-11 -10h-143l-10 10l172 1086l-64 -113l-387 -596l-12 -10h-164l-10 10l-201 596l-27 113l-174 -1086l-10 -10h-143z" />
<glyph unicode="N" horiz-adv-x="1392" d="M109 10l215 1354l10 10l147 23l11 -11l473 -1003l34 -98l172 1079l11 10l147 21l10 -11l-219 -1374l-10 -10h-139l-10 10l-474 1012l-36 98l-179 -1110l-10 -10h-143z" />
<glyph unicode="O" horiz-adv-x="1316" d="M131 381q0 53 8 100l66 418q38 240 190 372t381 132q209 0 337 -107.5t128 -298.5q0 -53 -8 -100l-68 -420q-38 -240 -189 -371t-380 -131q-209 0 -337 107.5t-128 298.5zM303 412q0 -128 73.5 -204.5t221.5 -76.5q165 0 269.5 92.5t133.5 272.5l62 387q6 43 6 84 q0 128 -73.5 204t-221.5 76q-165 0 -269.5 -92t-133.5 -272l-62 -387q-6 -44 -6 -84z" />
<glyph unicode="P" horiz-adv-x="1103" d="M109 10l217 1362l10 10h268q178 0 248 -18q109 -30 179.5 -112t70.5 -210q0 -146 -58.5 -262t-170 -183t-257.5 -67q-94 0 -163.5 28.5t-85.5 88.5l-7 -84l-88 -553l-10 -10h-143zM387 717q35 -16 88 -27.5t96 -11.5q146 0 236 72q56 45 89.5 114t33.5 152 q0 217 -252 217h-211z" />
<glyph unicode="Q" horiz-adv-x="1318" d="M129 379q0 52 8 96l68 422q38 242 188 374t383 132q211 0 338 -107t127 -299q0 -53 -8 -100l-68 -422q-41 -251 -185 -374t-398 -126q-8 -11 -18.5 -44t-10.5 -72q0 -48 23 -76.5t65 -28.5h205l10 -10l-25 -154l-10 -10h-207q-100 0 -149 55.5t-49 131.5q0 130 100 210 q-173 15 -280 122t-107 280zM301 406q0 -128 71 -201.5t226 -73.5q159 0 267 92t136 271l62 389q6 43 6 84q0 129 -72.5 204.5t-222.5 75.5q-165 0 -270.5 -93t-132.5 -271l-64 -400q-6 -41 -6 -77z" />
<glyph unicode="R" horiz-adv-x="1132" d="M109 10l217 1362l10 10h319q186 0 293 -84q113 -87 113 -241q0 -140 -58 -241t-151 -163q-98 -67 -244 -73l39 -54l193 -295q28 -42 56.5 -63t76.5 -21l20 3l11 -11l-41 -131l-11 -10q-22 -4 -47 -4q-37 0 -70 15.5t-61 44.5t-42 47.5t-34 48.5l-266 415l-10 10h-60 l-90 -565l-10 -10h-143zM385 721h197q105 0 184 61q55 43 89 108.5t34 145.5q0 197 -258 197h-164z" />
<glyph unicode="S" horiz-adv-x="972" d="M37 96l57 123l15 6q6 -4 16 -10t41 -22.5t62.5 -29t75.5 -22.5t83 -10q116 0 201.5 74.5t85.5 195.5q0 60 -25 103.5t-65.5 71t-89 51.5t-97.5 52.5t-89.5 66t-65.5 100.5t-25 147q0 118 63.5 214t161 146t205.5 50q96 0 170 -16.5t101 -32.5l26 -17l4 -14l-59 -125 l-15 -6q-9 6 -27 15t-78 24.5t-124 15.5q-112 0 -185 -71.5t-73 -176.5q0 -46 15.5 -82.5t42 -61.5t61 -46t72.5 -40t75.5 -39t72 -48t61 -63t42 -87t15.5 -116q0 -188 -125.5 -314.5t-339.5 -126.5q-52 0 -105.5 11t-93.5 26.5t-72.5 31.5t-49.5 27l-17 11z" />
<glyph unicode="T" horiz-adv-x="956" d="M135 1237l23 135l10 10h901l10 -10l-57 -137l-12 -8h-336l-195 -1217l-10 -10h-143l-11 10l195 1217h-365z" />
<glyph unicode="U" horiz-adv-x="1339" d="M150 377q0 51 8 98l141 889l10 10l148 21l10 -11l-141 -890q-7 -51 -7 -84q0 -127 69 -203t212 -76q150 0 253.5 92t131.5 271l137 870l11 10l147 21l10 -11l-145 -909q-38 -244 -178 -372t-371 -128q-206 0 -326 106.5t-120 295.5z" />
<glyph unicode="V" horiz-adv-x="1136" d="M164 1360l8 12l156 23l12 -9l149 -1085l13 -143l55 139l485 1063l13 10l176 25l10 -11l-661 -1392l-15 -6l-176 28l-10 11z" />
<glyph unicode="W" horiz-adv-x="1667" d="M162 1360l8 12l156 23l12 -9l133 -1021l12 -152l56 152l319 763l39 236l10 10l146 21l10 -11l-47 -280l57 -739l2 -152l62 152l430 995l12 10l176 25l10 -11l-643 -1392l-14 -6l-139 28l-11 11l-57 702l-4 143l-51 -143l-314 -735l-14 -6l-131 28l-10 11z" />
<glyph unicode="X" horiz-adv-x="1081" d="M-16 12l489 705l-250 643l8 12l144 25l12 -8l182 -492l17 -70l43 70l315 463l12 10l183 25l10 -11l-487 -698l270 -674l-8 -12h-154l-12 8l-193 500l-16 65l-47 -73l-328 -492l-12 -8h-170z" />
<glyph unicode="Y" horiz-adv-x="978" d="M164 1360l8 12l150 23l12 -9l168 -536l24 -90l49 92l299 508l13 10l182 25l10 -11l-497 -796l-95 -578l-10 -10h-143l-10 10l96 598z" />
<glyph unicode="Z" horiz-adv-x="1017" d="M33 10v94l770 1123h-580l-8 12l43 135l12 8h762l10 -10l-16 -94l-768 -1122h598l10 -11l-22 -135l-10 -10h-791z" />
<glyph unicode="[" horiz-adv-x="702" d="M156 -231l80 1603l10 10h340l8 -10l-43 -121l-12 -8h-154l-66 -1345h152l10 -11l33 -118l-8 -11h-340z" />
<glyph unicode="\" horiz-adv-x="800" d="M205 1364l8 12l123 19l12 -9l277 -1529l-11 -11h-131l-10 11z" />
<glyph unicode="]" horiz-adv-x="684" d="M127 -231l43 120l12 9h154l65 1345h-151l-10 10l-33 119l8 10h340l10 -10l-80 -1603l-10 -11h-340z" />
<glyph unicode="^" horiz-adv-x="1005" d="M6 555l410 807l12 8l166 25l12 -9l422 -833l-6 -10h-154l-10 10l-342 682l-340 -682l-10 -10h-154z" />
<glyph unicode="_" horiz-adv-x="1089" d="M-33 -139l21 129l10 10h928l8 -12l-23 -129l-12 -9h-922z" />
<glyph unicode="`" horiz-adv-x="1003" d="M401 1423l7 13h219l14 -6l125 -213l-6 -13l-98 -39l-15 2z" />
<glyph unicode="a" horiz-adv-x="1011" d="M84 260q0 34 6 72l55 352q26 170 135 261t281 91q56 0 110 -16t79 -32l26 -15l135 37l9 -13l-123 -761q-4 -20 -4 -35q0 -36 22 -50t45 -14h8l9 -12l-64 -123l-12 -8h-15q-10 0 -21.5 1.5t-34 9.5t-40.5 22t-33.5 42t-19.5 66q-3 -7 -8 -17.5t-27.5 -38t-51 -48.5 t-80 -38.5t-112.5 -17.5q-131 0 -202.5 79.5t-71.5 205.5zM244 293q0 -178 182 -178q24 0 75.5 13.5t90.5 27.5l39 14l80 492q6 35 6 71q0 84 -38 124t-134 40q-95 0 -161.5 -65t-86.5 -183l-47 -289q-6 -38 -6 -67z" />
<glyph unicode="b" horiz-adv-x="995" d="M74 23l227 1433l10 10l140 23l10 -10l-80 -508l-27 -94q6 12 11.5 22t30.5 38t53.5 47t79.5 35.5t110 16.5q112 0 191 -71t79 -199q0 -24 -8 -82l-57 -356q-28 -170 -135.5 -261.5t-276.5 -91.5q-40 0 -95 14t-91 28l-35 14l-127 -19zM250 154q8 -4 22.5 -10.5t63 -17.5 t100.5 -11q98 0 169 65t89 182l45 289q6 43 6 76q0 88 -44 127t-132 39q-50 0 -133 -27l-78 -26z" />
<glyph unicode="c" horiz-adv-x="909" d="M88 274q0 45 10 103l47 307q24 159 131.5 255.5t286.5 96.5q54 0 103.5 -11t81 -26.5t55.5 -31t35 -26.5l10 -11l2 -15l-84 -94l-14 -2l-8.5 8.5t-24 19t-40 23.5t-56.5 18.5t-72 8.5q-112 0 -173.5 -61.5t-80.5 -184.5l-45 -289q-6 -34 -6 -67q0 -88 46 -134t132 -46 q46 0 92 13.5t78 32.5t57.5 38.5t38.5 32.5l12 14l15 2l78 -92v-15q-6 -7 -16.5 -18t-46.5 -39.5t-76.5 -50.5t-105 -40t-132.5 -18q-147 0 -238.5 73t-91.5 226z" />
<glyph unicode="d" horiz-adv-x="1011" d="M84 260q0 34 6 72l55 352q26 170 135 261t281 91q36 0 70 -7t57.5 -17.5t41.5 -20.5t27 -17l9 -7l8 94l62 395l10 10l139 23l10 -10l-198 -1246q-4 -20 -4 -32q0 -36 22 -50t45 -14h8l9 -12l-64 -123l-12 -8h-15q-10 0 -21.5 1.5t-34 9.5t-40.5 22t-33.5 42t-19.5 66 q-3 -7 -8 -17.5t-27.5 -38t-51 -48.5t-80 -38.5t-112.5 -17.5q-131 0 -202.5 79.5t-71.5 205.5zM244 293q0 -178 182 -178q24 0 75.5 13.5t90.5 27.5l39 14l80 492q6 35 6 71q0 84 -38 124t-134 40q-95 0 -161.5 -65t-86.5 -183l-47 -289q-6 -38 -6 -67z" />
<glyph unicode="e" horiz-adv-x="937" d="M88 274q0 45 10 103l45 299q25 170 131 265t281 95q152 0 229.5 -74t77.5 -188q0 -88 -32 -155t-86 -106t-117.5 -58t-134.5 -19q-48 0 -88 11t-62.5 25.5t-40 33t-23 27.5t-8.5 16l-2 -78l-16 -109q-6 -34 -6 -67q0 -88 46 -134t132 -46q46 0 92 13.5t78 32.5t57.5 38.5 t38.5 32.5l12 14l15 2l78 -92v-15q-6 -7 -16.5 -18t-46.5 -39.5t-76.5 -50.5t-105 -40t-132.5 -18q-147 0 -238.5 73t-91.5 226zM291 610q38 -35 201 -35q37 0 71 9t66.5 29t52.5 60t20 95t-39.5 91t-121.5 36q-113 0 -169.5 -59t-74.5 -183z" />
<glyph unicode="f" horiz-adv-x="645" d="M-281 -408l62 109l14 4q29 -29 103 -29q77 0 138 60.5t81 185.5l151 948h-149l-10 11l20 120l10 11h152l26 170q27 174 132 269t260 95q46 0 89 -8t63 -16l20 -9l2 -14l-70 -117l-14 -2q-31 17 -101 17q-191 0 -229 -242l-23 -143h293l11 -11l-45 -120l-11 -11h-270 l-154 -960q-62 -381 -376 -381q-51 0 -93.5 12.5t-59.5 24.5l-17 12z" />
<glyph unicode="g" horiz-adv-x="995" d="M66 -383l59 104l14 5q7 -6 21.5 -15.5t65.5 -25t110 -15.5q104 0 168.5 52.5t79.5 144.5l28 174l21 90q-4 -10 -12.5 -25t-30.5 -39.5t-51 -43.5t-77 -33.5t-104 -14.5q-131 0 -202.5 79.5t-71.5 205.5q0 34 6 72l55 352q26 170 135.5 261t280.5 91q56 0 110 -16t79 -32 l26 -15l135 37l9 -13l-183 -1136q-13 -86 -51 -151t-93 -104t-119 -58t-136 -19q-79 0 -146.5 18.5t-95.5 36.5l-28 19zM244 293q0 -178 182 -178q24 0 75.5 13.5t90.5 27.5l39 14l80 494q6 30 6 69q0 84 -38 124t-134 40q-95 0 -161.5 -65t-86.5 -183l-47 -289 q-6 -38 -6 -67z" />
<glyph unicode="h" horiz-adv-x="1036" d="M72 10l229 1446l10 10l138 23l10 -10l-78 -508l-27 -94q6 12 11.5 22t30.5 38t53.5 47t79.5 35.5t110 16.5q112 0 191 -71t79 -199q0 -24 -8 -82l-65 -408q-11 -61 -11 -69q0 -39 24.5 -53.5t53.5 -14.5h4l11 -10l-44 -123l-10 -10h-14q-19 0 -38.5 2.5t-47 13t-48 27.5 t-35.5 50.5t-15 78.5q0 18 14 106l59 377q6 43 6 76q0 88 -44 127t-132 39q-50 0 -133 -27l-78 -26l-131 -830l-10 -10h-135z" />
<glyph unicode="i" horiz-adv-x="458" d="M70 10l155 981l11 10l139 21l10 -10l-160 -1002l-10 -10h-135zM248 1264l26 163l11 11h164l10 -11l-27 -163l-10 -11h-164z" />
<glyph unicode="j" horiz-adv-x="458" d="M-342 -408l61 109l15 4q28 -29 102 -29q78 0 139.5 60.5t81.5 185.5l170 1069l11 10l139 21l10 -10l-176 -1102q-30 -183 -124.5 -282t-254.5 -99q-51 0 -93.5 12.5t-59.5 24.5l-17 12zM250 1262l26 165l11 11h168l6 -11l-27 -165l-10 -9h-168z" />
<glyph unicode="k" horiz-adv-x="923" d="M72 10l229 1446l10 10l138 23l10 -10l-133 -838h10l12 6l338 348l14 6l197 21l6 -14l-350 -342l-72 -62l47 -82l138 -284q25 -50 51 -75.5t74 -25.5q18 0 26 2l10 -10l-36 -125l-11 -10q-14 -2 -30 -2q-147 0 -222 164l-190 409l-10 10h-13l-88 -565l-10 -10h-135z" />
<glyph unicode="l" horiz-adv-x="489" d="M90 172q0 34 6 64l195 1220l10 10l139 21l11 -10l-197 -1231q-4 -25 -4 -41q0 -68 76 -68h6l8 -12l-41 -121l-10 -10h-17q-14 0 -31.5 2.5t-45.5 13.5t-50 28.5t-38.5 52.5t-16.5 81z" />
<glyph unicode="m" horiz-adv-x="1599" d="M100 10l111 692q14 88 14 109q0 30 -19.5 49t-47.5 19h-6l-9 12l64 123l12 8h17q11 0 29.5 -5.5t45.5 -19t48 -46t26 -77.5q38 77 111 119.5t166 42.5q187 0 239 -147l4 -15q6 11 13.5 21.5t35.5 39t59 48.5t83.5 36.5t111.5 16.5q132 0 195 -72t63 -190q0 -40 -8 -90 l-67 -410q-11 -63 -11 -69q0 -39 24.5 -53.5t53.5 -14.5h4l11 -10l-43 -123l-11 -10h-12q-19 0 -38.5 2.5t-47.5 13t-49 27.5t-36 50.5t-15 78.5q0 24 14 106l61 379q9 65 9 88q0 73 -35.5 113.5t-124.5 40.5q-54 0 -133 -31l-97 -39q5 -40 5 -53q0 -21 -9 -86l-108 -674 l-10 -10h-136l-10 10l103 641q8 58 8 90q0 73 -36 112.5t-124 39.5q-48 0 -131 -27l-78 -26l-133 -830l-10 -10h-135z" />
<glyph unicode="n" horiz-adv-x="1069" d="M100 10l111 692q14 88 14 109q0 30 -19.5 49t-47.5 19h-6l-9 12l64 123l12 8h17q11 0 29.5 -5.5t45.5 -19t48 -46t26 -77.5q3 7 8.5 17.5t29 38.5t52.5 49.5t81.5 39t113.5 17.5q112 0 191 -71t79 -199q0 -24 -8 -82l-66 -395q-12 -68 -12 -84q0 -39 24.5 -53.5 t53.5 -14.5h4l10 -10l-43 -123l-10 -10h-14q-19 0 -38.5 2.5t-47.5 13t-48.5 27.5t-35.5 50.5t-15 78.5q0 18 15 106l61 379q6 43 6 76q0 88 -44 127t-132 39q-50 0 -133 -27l-78 -26l-133 -830l-10 -10h-135z" />
<glyph unicode="o" horiz-adv-x="995" d="M86 266q0 38 6 76l53 342q26 169 139 260.5t285 91.5q147 0 241.5 -76.5t94.5 -214.5q0 -33 -6 -73l-53 -344q-26 -170 -138.5 -261.5t-285.5 -91.5q-146 0 -241 76.5t-95 214.5zM244 293q0 -89 45.5 -133.5t142.5 -44.5q105 0 174 64t88 183l45 289q6 35 6 66 q0 180 -188 180q-110 0 -176.5 -63t-85.5 -183l-45 -289q-6 -37 -6 -69z" />
<glyph unicode="p" horiz-adv-x="1024" d="M27 -453l184 1155q14 88 14 109q0 30 -19.5 49t-47.5 19h-6l-9 12l64 123l12 8h17q11 0 29.5 -5.5t45 -19t47 -46t25.5 -77.5q3 7 8.5 17.5t29 38.5t52.5 49.5t81.5 39t113.5 17.5q112 0 191 -71t79 -199q0 -24 -8 -82l-56 -356q-27 -169 -133 -261t-262 -92 q-42 0 -80.5 7.5t-62 17t-44 22.5t-27 18.5t-11.5 10.5l-6 -102l-64 -379l-10 -10l-137 -23zM301 268q0 -153 174 -153q93 0 162.5 65.5t87.5 181.5l45 289q6 43 6 76q0 88 -45 127t-133 39q-50 0 -133 -27l-78 -26l-78 -498q-8 -54 -8 -74z" />
<glyph unicode="q" horiz-adv-x="993" d="M84 260q0 34 6 72l55 352q26 170 135.5 261t280.5 91q56 0 108.5 -16t77.5 -32l25 -15l135 37l8 -13l-227 -1427l-10 -10l-139 -23l-11 10l80 494l21 90q-4 -10 -12.5 -25t-30 -39.5t-50 -43.5t-75.5 -33.5t-103 -14.5q-131 0 -202.5 79.5t-71.5 205.5zM244 293 q0 -178 182 -178q24 0 74.5 13.5t89.5 27.5l39 14l80 504q4 40 4 59q0 84 -37 124t-131 40q-95 0 -161.5 -65t-86.5 -183l-47 -289q-6 -38 -6 -67z" />
<glyph unicode="r" horiz-adv-x="653" d="M100 10l111 692q14 88 14 109q0 30 -19.5 49t-47.5 19h-6l-9 12l64 123l12 8h17q11 0 29.5 -5.5t45.5 -19t48 -46t26 -77.5q3 7 9.5 17.5t28 38.5t46 49.5t64 39t81.5 17.5q25 0 45.5 -5t28.5 -10l8 -5l6 -15l-61 -153l-14 -6q-54 22 -113 22q-70 0 -125 -24l-133 -830 l-10 -10h-135z" />
<glyph unicode="s" horiz-adv-x="821" d="M31 78l53 110l12 5q10 -9 28.5 -22t74 -34.5t110.5 -21.5q32 0 62 4.5t61.5 17t54 32.5t37.5 53.5t15 76.5q0 34 -22 60t-57.5 43.5t-78.5 35t-86 39.5t-78.5 51t-57.5 76t-22 109q0 105 57.5 180t143.5 109t188 34q70 0 127 -13t79 -25l22 -13l4 -14l-58 -111l-12 -4 q-72 41 -164 41q-107 0 -167 -49.5t-60 -136.5q0 -47 41.5 -78.5t100 -53t117.5 -49.5t100.5 -84t41.5 -139q0 -162 -106 -247t-279 -85q-76 0 -145.5 22t-101.5 44l-31 22z" />
<glyph unicode="t" horiz-adv-x="753" d="M109 881l20 120l10 11h131l52 207l10 10l112 16l11 -10l-37 -223h321l11 -11l-45 -120l-11 -11h-299l-80 -503q-8 -47 -8 -93q0 -155 131 -155q38 0 80.5 15t65.5 30l24 16l15 -4l49 -108l-6 -15q-4 -3 -11.5 -8.5t-32.5 -19t-52.5 -23.5t-69 -18.5t-84.5 -8.5 q-126 0 -196 75.5t-70 211.5q0 48 8 92l82 516h-121z" />
<glyph unicode="u" horiz-adv-x="1034" d="M106 260q0 28 7 72l104 659l10 10l140 21l10 -10l-105 -652q-6 -38 -6 -67q0 -178 183 -178q24 0 75.5 13.5t91.5 27.5l39 14l129 821l11 10l139 21l10 -10l-125 -779q-4 -20 -4 -32q0 -36 22.5 -50t45.5 -14h8l8 -12l-63 -123l-13 -8h-14q-10 0 -22 1.5t-34.5 9.5 t-40.5 21.5t-33.5 42t-19.5 66.5q-2 -7 -7.5 -17.5t-28 -38t-51 -48.5t-79.5 -38.5t-112 -17.5q-131 0 -203 79.5t-72 205.5z" />
<glyph unicode="v" horiz-adv-x="913" d="M100 989l9 12l145 21l12 -8l115 -748l12 -116l49 116l281 531q12 24 12 41q0 25 -20 41.5t-41 23.5l-6 15l73 104l15 6q20 -3 43 -13.5t48 -29t41.5 -48.5t16.5 -67q0 -57 -35 -118l-428 -758l-12 -8l-129 30l-10 11z" />
<glyph unicode="w" horiz-adv-x="1427" d="M98 989l8 12l146 21l12 -8l119 -748l10 -116l45 116l238 541l29 184l10 10l135 21l10 -10l-35 -217l74 -529l10 -116l52 116l276 531q12 24 12 41q0 25 -20 41.5t-41 23.5l-6 15l73 104l15 6q20 -3 42.5 -13.5t47.5 -29t41 -48.5t16 -67q0 -57 -35 -118l-419 -758l-13 -8 l-137 30l-10 11l-72 495l-8 101l-37 -105l-229 -524l-13 -8l-143 30l-10 11z" />
<glyph unicode="x" horiz-adv-x="933" d="M-20 12l405 504l-244 473l9 12l143 21l12 -8l162 -355l22 -55l37 49l148 164q28 32 28 60q0 37 -38 67l2 14l106 70h14q86 -58 86 -145q0 -67 -77 -150l-230 -244l248 -477l-8 -12h-150l-12 8l-164 336l-22 57l-29 -49l-266 -344l-12 -8h-162z" />
<glyph unicode="y" horiz-adv-x="913" d="M-180 -375l65 101l15 2l6.5 -6.5t19 -14.5t30.5 -18t41 -14.5t50 -6.5q59 0 106.5 45t92.5 148l71 170l-20 6l-10 10l-189 942l8 12l146 21l12 -8l119 -744l12 -108l49 108l277 527q12 24 12 41q0 25 -20 41.5t-41 23.5l-6 15l73 104l15 6q20 -3 43 -13.5t48 -29 t41.5 -48.5t16.5 -67q0 -57 -35 -118l-417 -758l-41 -103q-55 -144 -113 -225t-116 -109t-138 -28q-115 0 -221 82z" />
<glyph unicode="z" horiz-adv-x="868" d="M16 10v86l598 774h-452l-8 13l39 121l12 8h620l11 -11v-90l-605 -770h480l10 -10l-21 -121l-10 -10h-663z" />
<glyph unicode="{" horiz-adv-x="833" d="M88 575l41 121l12 9q87 22 119 73.5t35 139.5l6 137q6 156 99 246t268 90h45l8 -13l-41 -118l-12 -9q-102 0 -155 -57t-60 -176l-7 -96q-6 -107 -52.5 -187.5t-127.5 -107.5q74 -36 116 -103t42 -155q0 -18 -2 -41l-12 -168q-4 -50 -4 -70q0 -100 45 -145t149 -45l12 -9 l33 -122l-8 -13h-51q-161 0 -246.5 85t-85.5 231q0 28 2 51l14 196q2 25 2 52q0 169 -176 192z" />
<glyph unicode="|" horiz-adv-x="598" d="M219 -438v1888l10 12l136 21l10 -8v-1913l-10 -11h-136z" />
<glyph unicode="}" horiz-adv-x="819" d="M125 -231l41 118l12 9q101 0 154.5 57t60.5 176l13 213q6 106 52.5 186t127.5 107q-74 34 -115 101t-41 153q0 3 4 61l4 58q2 25 2 45q0 102 -44.5 148t-143.5 46l-12 8l-33 123l8 13h45q159 0 245.5 -84.5t86.5 -227.5q0 -32 -2 -59l-4 -70q-2 -31 -2 -55 q0 -83 37.5 -132.5t132.5 -62.5l8 -12l-41 -121l-12 -8q-85 -19 -117 -71.5t-35 -141.5l-12 -254q-8 -156 -100 -246t-267 -90h-45z" />
<glyph unicode="~" horiz-adv-x="1175" d="M137 553q0 169 79 252.5t202 83.5q60 0 110 -20.5t84.5 -49.5t64.5 -58.5t64 -50t70 -20.5q137 0 137 180l10 11h138l10 -11q0 -169 -79 -252t-202 -83q-60 0 -110 20.5t-84.5 49.5t-64.5 58t-64 49.5t-70 20.5q-137 0 -137 -180l-10 -10h-138z" />
<glyph unicode="&#xa1;" horiz-adv-x="505" d="M-8 -465l217 1086l12 10h101l10 -10l-139 -1061l-11 -11l-180 -24zM205 815l33 186l12 11h172l8 -11l-33 -186l-12 -10h-172z" />
<glyph unicode="&#xa2;" horiz-adv-x="1017" d="M111 483q0 37 6 74l10 64q28 177 147 278.5t279 114.5l27 155l10 11l96 14l10 -10l-28 -174q60 -9 112 -31.5t83.5 -49t54 -52t31.5 -41.5l9 -17l-6 -14l-114 -55l-15 6q-2 4 -6 10t-20 22.5t-35 30.5t-51 28.5t-68 20.5l-94 -563q44 5 82.5 19t62 30t40 31.5t23.5 26.5 l7 10l14 4l115 -49l4 -15q-5 -8 -14 -20.5t-42.5 -45.5t-73 -59t-105 -49.5t-138.5 -27.5l-24 -150l-11 -10h-94l-10 10l27 156q-130 20 -215.5 102t-85.5 215zM266 504q0 -78 46 -129.5t122 -65.5l94 557q-93 -19 -160.5 -86.5t-84.5 -163.5l-11 -55q-6 -48 -6 -57z" />
<glyph unicode="&#xa3;" horiz-adv-x="1140" d="M41 94l8 12q5 0 12.5 1t28.5 6t38.5 13.5t35 27t24.5 43.5l103 360h-158l-10 10l20 119l11 10h178l47 162q45 163 142 251.5t241 88.5q70 0 130.5 -17.5t85.5 -34.5l26 -18l6 -14l-64 -106l-14 -7q-7 6 -21 15t-61 24t-98 15q-163 0 -228 -234l-37 -125h320l8 -12 l-51 -119l-12 -8h-303l-93 -319l-41 -103h47q66 0 165 -40t149 -40q33 0 63.5 11.5t58.5 36.5t45 72.5t17 111.5l-4 51l8 12l123 25l12 -8q7 -44 7 -74q0 -93 -28 -167.5t-74 -120t-102 -69.5t-116 -24q-66 0 -184 44t-178 44q-38 0 -98 -8.5t-101 -17.5l-41 -9l-12 8z" />
<glyph unicode="&#xa5;" horiz-adv-x="1064" d="M115 319l20 119l10 11h287l10 59l-51 141h-229l-10 10l20 119l10 10h158l-133 369l8 12l145 25l13 -8l149 -453l19 -80l45 80l268 426l12 10l181 25l10 -10l-269 -396h197l8 -12l-51 -119l-12 -8h-236l-96 -141l-10 -59h295l8 -13l-51 -119l-13 -8h-264l-49 -299l-10 -10 h-135l-11 10l50 299h-283z" />
<glyph unicode="&#xa6;" horiz-adv-x="585" d="M242 330l10 10h143l11 -10v-770l-11 -11h-143l-10 11v770zM242 707v747l8 12l143 23l13 -8v-774l-11 -11h-143z" />
<glyph unicode="&#xa7;" horiz-adv-x="815" d="M-45 -309l100 90l15 2q3 -4 8 -10t23 -21.5t38.5 -27.5t53.5 -21.5t69 -9.5q46 0 81.5 14.5t56 42.5t33.5 55.5t18 68t6.5 65t1.5 59.5v1067l10 18l100 68l13 -14l32 -215v-938q0 -40 -1.5 -72t-9.5 -80t-22 -84.5t-40.5 -76.5t-63 -66t-93 -43t-126.5 -17 q-60 0 -113 13.5t-86 32.5t-57.5 38.5t-34.5 32.5l-10 14zM190 25v938q0 40 2 72t9.5 79.5t21.5 84t41 76.5t63.5 66t93 43t126.5 17q60 0 113 -13.5t86 -32.5t57.5 -38.5t34.5 -32.5l10 -14l2 -15l-100 -90l-15 -2q-3 4 -8 10t-23 21.5t-38.5 27.5t-53.5 21.5t-69 9.5 q-46 0 -81.5 -14t-56 -41.5t-33.5 -54.5t-18 -67.5t-6.5 -65.5t-1.5 -62v-1067l-10 -18l-100 -68l-13 15z" />
<glyph unicode="&#xa8;" horiz-adv-x="1003" d="M389 1268l25 153l10 11h154l10 -11l-25 -153l-10 -11h-154zM670 1268l24 153l11 11h153l10 -11l-24 -153l-10 -11h-154z" />
<glyph unicode="&#xa9;" horiz-adv-x="1630" d="M156 565v244q0 118 39.5 218t105.5 169t154.5 117.5t185 71t197.5 22.5q103 0 200 -22.5t185 -71t154 -117.5t104.5 -168.5t38.5 -218.5v-244q0 -119 -38.5 -219.5t-104.5 -169.5t-154 -117.5t-185 -71t-200 -22.5q-101 0 -197.5 22.5t-185 71t-154.5 117.5t-105.5 169.5 t-39.5 219.5zM289 606q0 -131 44.5 -231.5t121.5 -160.5t174 -90t209 -30q90 0 170 18.5t150 58.5t120 99t79 145t29 191v160q0 106 -29 192t-79 145t-120 99t-150 58t-170 18q-112 0 -209 -30t-174 -89.5t-121.5 -160.5t-44.5 -232v-160zM508 565v236q0 151 85 231t238 80 q108 0 190 -49.5t112 -136.5l-7 -13l-104 -41l-14 5q-69 100 -177 100q-82 0 -133 -47.5t-51 -136.5v-220q0 -89 51 -135.5t133 -46.5q66 0 115 29t74 82l14 4l103 -37l6 -12q-30 -99 -111.5 -150t-200.5 -51q-153 0 -238 79.5t-85 229.5z" />
<glyph unicode="&#xaa;" horiz-adv-x="712" d="M172 932q0 15 4 43l33 201q17 106 82.5 162.5t169.5 56.5q29 0 63.5 -8.5t53.5 -17.5l20 -9l92 22l8 -12l-73 -442q-3 -24 6 -43.5t31 -22.5l8 -10l-43 -92l-13 -8h-16q-7 0 -19 3t-30.5 12t-32.5 31t-16 54q-2 -4 -5.5 -11.5t-17.5 -26.5t-30.5 -33t-44.5 -26t-60 -12 q-76 0 -123 51t-47 138zM299 946q0 -40 23 -65t67 -25q23 0 49 6t41 12l15 7l47 301q7 42 -12.5 71t-69.5 29q-52 0 -86 -37t-43 -98l-27 -166q-4 -24 -4 -35z" />
<glyph unicode="&#xab;" horiz-adv-x="974" d="M84 498l2 12l324 397l12 8h162l8 -12l-348 -405l194 -383l-6 -15h-143l-15 6zM438 498l2 12l324 397l12 8h162l8 -12l-348 -405l195 -383l-7 -15h-143l-14 6z" />
<glyph unicode="&#xac;" d="M74 467v70l12 10l813 471l10 -8l64 -113l-2 -12l-31 -29l-133 -354l133 -350l31 -29l2 -12l-64 -113l-10 -8l-815 467z" />
<glyph unicode="&#xad;" horiz-adv-x="827" d="M150 459l24 143l10 10h500l8 -12l-59 -143l-12 -8h-461z" />
<glyph unicode="&#xae;" horiz-adv-x="972" d="M170 934v133q0 66 22 122t59.5 94.5t87.5 66t104.5 40.5t111.5 13q72 0 139.5 -21t123 -61t89 -106t33.5 -148v-133q0 -83 -33.5 -149t-89 -106.5t-123 -61.5t-139.5 -21t-139 21t-123 61.5t-89.5 106.5t-33.5 149zM264 956q0 -138 83 -207t208 -69q127 0 209 69t82 207 v86q0 139 -82 208t-209 69q-126 0 -208.5 -69t-82.5 -208v-86zM414 772v453l10 10h127q172 0 172 -145q0 -52 -32 -87t-79 -45l70 -92q13 -16 45 -16h6l10 -10l-10 -68l-10 -10h-25q-60 0 -96 59l-86 131h-4v-180l-10 -10h-78zM512 1028h39q30 0 52 16t22 46q0 57 -74 57 h-39v-119z" />
<glyph unicode="&#xaf;" horiz-adv-x="1003" d="M383 1255l23 119l10 10h458l9 -10l-47 -119l-13 -10h-430z" />
<glyph unicode="&#xb0;" horiz-adv-x="698" d="M178 1114l6 60q11 109 92.5 170t190.5 61q106 0 177.5 -60t60.5 -171l-7 -60q-11 -109 -92 -170t-190 -61q-106 0 -177.5 60t-60.5 171zM303 1104q0 -45 28.5 -74t84.5 -29q164 0 164 183q0 45 -28.5 73.5t-84.5 28.5q-164 0 -164 -182z" />
<glyph unicode="&#xb1;" horiz-adv-x="1126" d="M78 -197l28 142l11 10h690l8 -12l-59 -142l-13 -8h-655zM178 469l25 125l10 10h250l47 295l10 10l139 21l11 -10l-52 -316h287l8 -12l-53 -125l-12 -8h-252l-53 -334l-11 -10h-135l-10 10l53 334h-252z" />
<glyph unicode="&#xb2;" horiz-adv-x="712" d="M141 821q9 40 46.5 87t86.5 88.5t105 90t102 91t76.5 92t30.5 94.5q0 47 -19 74q-23 37 -77 37q-42 0 -85.5 -23.5t-66.5 -46.5l-23 -23l-14 -2l-65 66l-2 14q4 5 12 14t34 32t54.5 40.5t73 32t90.5 14.5q103 0 162 -59q59 -56 59 -156q0 -69 -37.5 -138t-93 -124 t-112.5 -101.5t-104.5 -86.5t-58.5 -62h342l11 -10l-41 -98l-11 -10h-460l-11 10z" />
<glyph unicode="&#xb3;" horiz-adv-x="706" d="M127 895l2 14l78 58l14 -2q2 -4 6.5 -11.5t20 -26.5t32.5 -33t44.5 -26t56.5 -12q66 0 110.5 35t55.5 94l4 23q7 44 -17.5 72.5t-59.5 38t-75 9.5h-63l-8 13l43 96l12 8h35q90 0 133 36.5t43 96.5q0 45 -32.5 72t-80.5 27q-26 0 -53.5 -9.5t-48 -22.5t-37 -26.5 t-24.5 -22.5l-9 -10l-14 -2l-70 62l-2 14q4 5 12 14t34.5 32t55 40.5t73.5 32t91 14.5q103 0 168.5 -53t65.5 -149q0 -61 -30 -114.5t-95 -86.5q101 -47 84 -166l-8 -51q-18 -116 -98 -175t-189 -59q-52 0 -98 16t-74.5 39t-49.5 46t-29 39z" />
<glyph unicode="&#xb4;" horiz-adv-x="1005" d="M457 1217l161 210l17 9h229l6 -13l-290 -256l-15 -2l-102 39z" />
<glyph unicode="&#xb5;" horiz-adv-x="1628" d="M74 467v70l12 10l813 471l10 -8l64 -113l-2 -12l-31 -29l-133 -268h725l10 -10v-152l-10 -10h-725l133 -264l31 -29l2 -12l-64 -113l-10 -8l-815 467z" />
<glyph unicode="&#xb6;" horiz-adv-x="1142" d="M137 647q0 45 8 86l43 256q17 103 64.5 181t115 123t144 67t160.5 22h526l8 -12l-41 -137l-12 -8h-358l-279 -1663l-10 -11h-131l-10 11l131 774q-74 0 -137 18t-113.5 54t-79.5 97.5t-29 141.5zM629 -438l258 1544l10 10h131l10 -10l-258 -1544l-10 -11h-131z" />
<glyph unicode="&#xb7;" horiz-adv-x="520" d="M141 442l35 193l12 10h187l10 -10l-35 -193l-12 -10h-186z" />
<glyph unicode="&#xb8;" horiz-adv-x="1007" d="M178 -285l41 74l14 6q45 -33 97 -33q74 0 112.5 43.5t38.5 108.5q0 16 -4 37.5t-8 34.5l-4 14h61q8 -7 19 -20t30 -51t19 -74q0 -96 -75.5 -155.5t-168.5 -59.5q-46 0 -94.5 17t-75.5 44z" />
<glyph unicode="&#xb9;" horiz-adv-x="702" d="M137 758l19 106l10 10h180l100 582h-133l-10 10l-6 107l8 10h279l10 -10l-119 -699h187l8 -12l-45 -104l-11 -10h-467z" />
<glyph unicode="&#xba;" horiz-adv-x="677" d="M168 930q0 13 4 37l37 209q19 106 86 163.5t168 57.5q93 0 155 -48.5t62 -134.5q0 -10 -4 -38l-37 -209q-19 -106 -84.5 -162.5t-167.5 -56.5q-94 0 -156.5 47.5t-62.5 134.5zM295 961q0 -48 24.5 -74.5t69.5 -26.5q53 0 88 34t45 95l31 168q2 10 2 29q0 45 -24.5 70.5 t-69.5 25.5q-54 0 -88 -32.5t-45 -92.5l-31 -168q-2 -10 -2 -28z" />
<glyph unicode="&#xbb;" horiz-adv-x="972" d="M25 113l348 405l-195 383l6 14h144l14 -6l190 -391l-2 -12l-323 -397l-12 -9h-162zM379 113l348 405l-195 383l7 14h143l14 -6l191 -391l-2 -12l-324 -397l-12 -9h-162z" />
<glyph unicode="&#xbc;" horiz-adv-x="1560" d="M84 557l18 107l11 10h180l100 581h-133l-10 11l-6 106l8 10h278l11 -10l-119 -698h186l8 -12l-45 -105l-10 -10h-467zM438 12l471 1000l13 8l106 -19l8 -12l-458 -981l-13 -8h-119zM829 301l433 512l14 10l106 19l11 -11l-84 -495h139l8 -12l-45 -105l-12 -8h-111 l-33 -197l-10 -10l-110 -16l-11 10l35 213h-305l-10 10zM1004 336h178l47 274l-53 -78l-136 -159z" />
<glyph unicode="&#xbd;" horiz-adv-x="1619" d="M84 557l18 107l11 10h180l100 581h-133l-10 11l-6 106l8 10h278l11 -10l-119 -698h186l8 -12l-45 -105l-10 -10h-467zM438 12l471 1000l13 8l106 -19l8 -12l-458 -981l-13 -8h-119zM934 74q11 47 61 103.5t113.5 109t125.5 106t104 112t42 111.5q0 48 -18 74 q-23 37 -78 37q-42 0 -85.5 -23t-66.5 -46l-22 -23l-14 -2l-66 65l-2 15q4 5 12 14t34 32t54.5 40.5t73 32t90.5 14.5q102 0 162 -60q59 -56 59 -155q0 -69 -37 -138t-93 -124t-112.5 -101.5t-104 -86.5t-58.5 -62h342l10 -10l-41 -99l-10 -10h-461l-10 10z" />
<glyph unicode="&#xbe;" horiz-adv-x="1538" d="M100 694l2 15l78 57l15 -2q2 -4 6.5 -11.5t19.5 -26.5t32 -33t44.5 -26t56.5 -12q66 0 110.5 35t55.5 94l4 23q11 63 -37.5 92t-113.5 29h-64l-8 12l43 96l12 8h35q90 0 133 37t43 97q0 45 -32 71.5t-80 26.5q-42 0 -85 -22.5t-65 -45.5l-22 -22l-15 -2l-69 61l-2 15 q4 5 12 14t34.5 32t55 40.5t73.5 32t91 14.5q102 0 167.5 -53.5t65.5 -149.5q0 -61 -30 -114.5t-95 -86.5q101 -47 84 -166l-8 -51q-18 -116 -98 -174.5t-189 -58.5q-52 0 -98 16t-74.5 38.5t-49.5 45.5t-30 39zM416 12l471 1000l12 8l107 -19l8 -12l-459 -981l-12 -8h-119z M807 301l432 512l14 10l107 19l10 -11l-84 -495h139l9 -12l-45 -105l-13 -8h-110l-33 -197l-10 -10l-111 -16l-10 10l35 213h-306l-10 10zM981 336h178l47 274l-53 -78l-135 -159z" />
<glyph unicode="&#xbf;" horiz-adv-x="940" d="M-14 -186q0 40 6 75l28 191q50 332 392 360l47 181l12 10h98l11 -10l-50 -310l-10 -10l-137 -22q-83 -13 -135 -76t-66 -158l-20 -131q-6 -37 -6 -64q0 -86 45.5 -134t136.5 -48q106 0 175 58.5t89 169.5l12 8l138 -27l8 -12q-27 -166 -145.5 -259t-278.5 -93 q-153 0 -251.5 81t-98.5 220zM446 815l33 186l13 11h172l8 -11l-33 -186l-12 -10h-172z" />
<glyph unicode="&#xc0;" d="M-45 10l629 1352l10 10l190 23l11 -11l200 -1374l-10 -10h-145l-11 10l-45 332h-503l-150 -332l-10 -10h-156zM348 489h416l-86 639l-8 86l-29 -81zM461 1759l6 13h219l14 -7l125 -213l-6 -12l-98 -39l-14 2z" />
<glyph unicode="&#xc1;" d="M-45 10l629 1352l10 10l190 23l11 -11l200 -1374l-10 -10h-145l-11 10l-45 332h-503l-150 -332l-10 -10h-156zM348 489h416l-86 639l-8 86l-29 -81zM594 1552l162 211l16 9h229l7 -13l-291 -256l-15 -2l-102 39z" />
<glyph unicode="&#xc2;" d="M-45 10l629 1352l10 10l190 23l11 -11l200 -1374l-10 -10h-145l-11 10l-45 332h-503l-150 -332l-10 -10h-156zM348 489h416l-86 639l-8 86l-29 -81zM442 1552l224 213l14 7h139l15 -7l155 -213l-6 -14l-121 -39l-14 6l-107 156l-161 -156l-15 -6l-116 39z" />
<glyph unicode="&#xc3;" d="M-45 10l629 1352l10 10l190 23l11 -11l200 -1374l-10 -10h-145l-11 10l-45 332h-503l-150 -332l-10 -10h-156zM348 489h416l-86 639l-8 86l-29 -81zM434 1622v14q56 64 100.5 90.5t108.5 26.5q37 0 67.5 -14.5t47 -31.5t38.5 -31.5t44 -14.5q20 0 47 16.5t44 32.5l17 16 l15 -2l61 -69v-15q-51 -62 -98 -88t-113 -26q-36 0 -66 14t-46.5 31t-38.5 31t-44 14q-21 0 -48 -16.5t-44 -33.5l-16 -16l-14 2z" />
<glyph unicode="&#xc4;" d="M-45 10l629 1352l10 10l190 23l11 -11l200 -1374l-10 -10h-145l-11 10l-45 332h-503l-150 -332l-10 -10h-156zM348 489h416l-86 639l-8 86l-29 -81zM504 1604l24 153l11 10h153l10 -10l-24 -153l-10 -11h-154zM784 1604l25 153l10 10h154l10 -10l-25 -153l-10 -11h-153z " />
<glyph unicode="&#xc5;" d="M-45 10l629 1352l10 10l190 23l11 -11l200 -1374l-10 -10h-145l-11 10l-45 332h-503l-150 -332l-10 -10h-156zM348 489h416l-86 639l-8 86l-29 -81zM573 1610q0 56 19 96q23 43 67 66.5t95 23.5q63 0 108 -29t45 -84q0 -77 -41 -124q-52 -58 -137 -58q-62 0 -109 27.5 t-47 81.5zM664 1632q0 -51 63 -51q38 0 64 19.5t26 62.5q0 53 -67 53q-38 0 -62 -21t-24 -63z" />
<glyph unicode="&#xc6;" horiz-adv-x="1505" d="M-53 10l721 1362l14 10h791l8 -10l-23 -135l-12 -10h-547l10 -422h461l8 -10l-53 -136l-10 -10h-402l15 -493h405l6 -11l-43 -135l-14 -10h-500l-10 10l-8 338h-463l-174 -338l-12 -10h-164zM377 496h383l-17 630v93l-38 -93z" />
<glyph unicode="&#xc7;" horiz-adv-x="1189" d="M131 387q0 47 8 88l68 422q38 244 175.5 375t358.5 131q80 0 152.5 -17t118.5 -41.5t81 -49t51 -41.5l15 -17v-16l-100 -103h-15q-4 5 -12 14t-36.5 31t-61 39t-86 31t-111.5 14q-151 0 -243.5 -92t-120.5 -272l-62 -389q-6 -41 -6 -76q0 -129 73.5 -208t223.5 -79 q49 0 93 10.5t75.5 27.5t58.5 37t44.5 40.5t29.5 37.5t17 28l6 10l14 6l129 -49l6 -15q-2 -6 -7 -16t-23.5 -38.5t-41 -55t-61 -59t-81.5 -56.5t-104.5 -42t-129.5 -20q47 -63 47 -122q0 -96 -75.5 -155.5t-168.5 -59.5q-46 0 -94.5 17t-75.5 44l-2 14l41 74l14 6 q45 -33 97 -33q74 0 112.5 43.5t38.5 108.5q0 18 -10 63q-189 14 -304.5 123.5t-115.5 286.5z" />
<glyph unicode="&#xc8;" horiz-adv-x="987" d="M109 10l217 1362l10 10h655l8 -12l-22 -135l-12 -8h-498l-68 -422h432l9 -12l-58 -136l-12 -8h-395l-78 -493h500l8 -13l-39 -135l-12 -8h-635zM440 1759l6 13h220l14 -7l125 -213l-6 -12l-99 -39l-14 2z" />
<glyph unicode="&#xc9;" horiz-adv-x="987" d="M109 10l217 1362l10 10h655l8 -12l-22 -135l-12 -8h-498l-68 -422h432l9 -12l-58 -136l-12 -8h-395l-78 -493h500l8 -13l-39 -135l-12 -8h-635zM573 1552l162 211l17 9h229l6 -13l-291 -256l-14 -2l-102 39z" />
<glyph unicode="&#xca;" horiz-adv-x="987" d="M109 10l217 1362l10 10h655l8 -12l-22 -135l-12 -8h-498l-68 -422h432l9 -12l-58 -136l-12 -8h-395l-78 -493h500l8 -13l-39 -135l-12 -8h-635zM422 1552l223 213l14 7h140l14 -7l156 -213l-6 -14l-121 -39l-15 6l-106 156l-162 -156l-14 -6l-117 39z" />
<glyph unicode="&#xcb;" horiz-adv-x="987" d="M109 10l217 1362l10 10h655l8 -12l-22 -135l-12 -8h-498l-68 -422h432l9 -12l-58 -136l-12 -8h-395l-78 -493h500l8 -13l-39 -135l-12 -8h-635zM483 1604l25 153l10 10h154l10 -10l-25 -153l-10 -11h-153zM764 1604l24 153l11 10h153l11 -10l-25 -153l-10 -11h-154z" />
<glyph unicode="&#xcc;" horiz-adv-x="544" d="M109 10l215 1354l10 10l147 21l11 -11l-220 -1374l-10 -10h-143zM172 1759l6 13h219l15 -7l125 -213l-7 -12l-98 -39l-14 2z" />
<glyph unicode="&#xcd;" horiz-adv-x="544" d="M109 10l215 1354l10 10l147 21l11 -11l-220 -1374l-10 -10h-143zM305 1552l162 211l16 9h230l6 -13l-291 -256l-14 -2l-103 39z" />
<glyph unicode="&#xce;" horiz-adv-x="544" d="M109 10l215 1354l10 10l147 21l11 -11l-220 -1374l-10 -10h-143zM154 1552l223 213l14 7h139l15 -7l155 -213l-6 -14l-121 -39l-14 6l-106 156l-162 -156l-15 -6l-116 39z" />
<glyph unicode="&#xcf;" horiz-adv-x="544" d="M109 10l215 1354l10 10l147 21l11 -11l-220 -1374l-10 -10h-143zM215 1604l25 153l10 10h153l11 -10l-25 -153l-10 -11h-154zM496 1604l24 153l10 10h154l10 -10l-24 -153l-11 -11h-153z" />
<glyph unicode="&#xd0;" horiz-adv-x="1306" d="M125 625l22 135l11 10h104l96 602l11 10h419q194 0 316.5 -106t122.5 -297q0 -49 -8 -96l-62 -387q-40 -247 -182.5 -371.5t-382.5 -124.5h-440l-11 10l97 604h-103zM330 156h274q149 0 254 90t133 268l56 348q6 47 6 84q0 138 -80.5 209.5t-220.5 71.5h-252l-74 -457 h258l8 -12l-55 -135l-12 -9h-224z" />
<glyph unicode="&#xd1;" horiz-adv-x="1392" d="M109 10l215 1354l10 10l147 23l11 -11l473 -1003l34 -98l172 1079l11 10l147 21l10 -11l-219 -1374l-10 -10h-139l-10 10l-474 1012l-36 98l-179 -1110l-10 -10h-143zM567 1622v14q56 64 100.5 90.5t108.5 26.5q37 0 67.5 -14.5t47 -31.5t38.5 -31.5t44 -14.5 q20 0 47 16.5t44 32.5l17 16l15 -2l61 -69v-15q-51 -62 -98 -88t-113 -26q-36 0 -65.5 14t-46.5 31t-38.5 31t-43.5 14q-21 0 -48 -16.5t-44 -33.5l-17 -16l-14 2z" />
<glyph unicode="&#xd2;" horiz-adv-x="1316" d="M131 381q0 53 8 100l66 418q38 240 190 372t381 132q209 0 337 -107.5t128 -298.5q0 -53 -8 -100l-68 -420q-38 -240 -189 -371t-380 -131q-209 0 -337 107.5t-128 298.5zM303 412q0 -128 73.5 -204.5t221.5 -76.5q165 0 269.5 92.5t133.5 272.5l62 387q6 43 6 84 q0 128 -73.5 204t-221.5 76q-165 0 -269.5 -92t-133.5 -272l-62 -387q-6 -44 -6 -84zM557 1759l6 13h219l15 -7l125 -213l-7 -12l-98 -39l-14 2z" />
<glyph unicode="&#xd3;" horiz-adv-x="1316" d="M131 381q0 53 8 100l66 418q38 240 190 372t381 132q209 0 337 -107.5t128 -298.5q0 -53 -8 -100l-68 -420q-38 -240 -189 -371t-380 -131q-209 0 -337 107.5t-128 298.5zM303 412q0 -128 73.5 -204.5t221.5 -76.5q165 0 269.5 92.5t133.5 272.5l62 387q6 43 6 84 q0 128 -73.5 204t-221.5 76q-165 0 -269.5 -92t-133.5 -272l-62 -387q-6 -44 -6 -84zM690 1552l162 211l16 9h230l6 -13l-291 -256l-14 -2l-103 39z" />
<glyph unicode="&#xd4;" horiz-adv-x="1316" d="M131 381q0 53 8 100l66 418q38 240 190 372t381 132q209 0 337 -107.5t128 -298.5q0 -53 -8 -100l-68 -420q-38 -240 -189 -371t-380 -131q-209 0 -337 107.5t-128 298.5zM303 412q0 -128 73.5 -204.5t221.5 -76.5q165 0 269.5 92.5t133.5 272.5l62 387q6 43 6 84 q0 128 -73.5 204t-221.5 76q-165 0 -269.5 -92t-133.5 -272l-62 -387q-6 -44 -6 -84zM539 1552l223 213l14 7h139l15 -7l155 -213l-6 -14l-121 -39l-14 6l-106 156l-162 -156l-14 -6l-117 39z" />
<glyph unicode="&#xd5;" horiz-adv-x="1316" d="M131 381q0 53 8 100l66 418q38 240 190 372t381 132q209 0 337 -107.5t128 -298.5q0 -53 -8 -100l-68 -420q-38 -240 -189 -371t-380 -131q-209 0 -337 107.5t-128 298.5zM303 412q0 -128 73.5 -204.5t221.5 -76.5q165 0 269.5 92.5t133.5 272.5l62 387q6 43 6 84 q0 128 -73.5 204t-221.5 76q-165 0 -269.5 -92t-133.5 -272l-62 -387q-6 -44 -6 -84zM530 1622v14q56 64 100.5 90.5t108.5 26.5q37 0 67.5 -14.5t47 -31.5t38.5 -31.5t44 -14.5q20 0 47 16.5t44 32.5l17 16l15 -2l61 -69v-15q-51 -62 -98 -88t-113 -26q-36 0 -65.5 14 t-46.5 31t-38.5 31t-43.5 14q-21 0 -48 -16.5t-44 -33.5l-17 -16l-14 2z" />
<glyph unicode="&#xd6;" horiz-adv-x="1316" d="M131 381q0 53 8 100l66 418q38 240 190 372t381 132q209 0 337 -107.5t128 -298.5q0 -53 -8 -100l-68 -420q-38 -240 -189 -371t-380 -131q-209 0 -337 107.5t-128 298.5zM303 412q0 -128 73.5 -204.5t221.5 -76.5q165 0 269.5 92.5t133.5 272.5l62 387q6 43 6 84 q0 128 -73.5 204t-221.5 76q-165 0 -269.5 -92t-133.5 -272l-62 -387q-6 -44 -6 -84zM600 1604l25 153l10 10h153l11 -10l-25 -153l-10 -11h-154zM881 1604l24 153l10 10h154l10 -10l-24 -153l-11 -11h-153z" />
<glyph unicode="&#xd7;" horiz-adv-x="1126" d="M158 260l2 14l295 267l-203 260l2 14l113 76l14 -2l190 -244l301 273l15 -3l61 -124l-2 -15l-280 -252l211 -268l-3 -14l-108 -84l-14 2l-203 258l-289 -260l-14 2z" />
<glyph unicode="&#xd8;" horiz-adv-x="1312" d="M129 381q0 53 8 100l66 418q38 240 190 372t381 132q137 0 240 -47l37 63l14 6l90 -32l6 -15l-49 -84q127 -111 127 -297q0 -53 -8 -100l-68 -420q-38 -240 -189 -371t-380 -131q-118 0 -219 37l-51 -88l-13 -4l-82 49l-4 15l49 84q-145 110 -145 313zM301 412 q0 -121 61 -191l570 993q-71 33 -160 33q-165 0 -269.5 -92t-133.5 -272l-62 -387q-6 -44 -6 -84zM457 156q61 -25 139 -25q165 0 269.5 92.5t133.5 272.5l62 387q6 43 6 84q0 103 -45 168z" />
<glyph unicode="&#xd9;" horiz-adv-x="1339" d="M150 377q0 51 8 98l141 889l10 10l148 21l10 -11l-141 -890q-7 -51 -7 -84q0 -127 69 -203t212 -76q150 0 253.5 92t131.5 271l137 870l11 10l147 21l10 -11l-145 -909q-38 -244 -178 -372t-371 -128q-206 0 -326 106.5t-120 295.5zM565 1759l6 13h220l14 -7l125 -213 l-6 -12l-99 -39l-14 2z" />
<glyph unicode="&#xda;" horiz-adv-x="1339" d="M150 377q0 51 8 98l141 889l10 10l148 21l10 -11l-141 -890q-7 -51 -7 -84q0 -127 69 -203t212 -76q150 0 253.5 92t131.5 271l137 870l11 10l147 21l10 -11l-145 -909q-38 -244 -178 -372t-371 -128q-206 0 -326 106.5t-120 295.5zM698 1552l162 211l17 9h229l6 -13 l-291 -256l-14 -2l-102 39z" />
<glyph unicode="&#xdb;" horiz-adv-x="1339" d="M150 377q0 51 8 98l141 889l10 10l148 21l10 -11l-141 -890q-7 -51 -7 -84q0 -127 69 -203t212 -76q150 0 253.5 92t131.5 271l137 870l11 10l147 21l10 -11l-145 -909q-38 -244 -178 -372t-371 -128q-206 0 -326 106.5t-120 295.5zM547 1552l223 213l14 7h140l14 -7 l156 -213l-7 -14l-120 -39l-15 6l-106 156l-162 -156l-14 -6l-117 39z" />
<glyph unicode="&#xdc;" horiz-adv-x="1339" d="M150 377q0 51 8 98l141 889l10 10l148 21l10 -11l-141 -890q-7 -51 -7 -84q0 -127 69 -203t212 -76q150 0 253.5 92t131.5 271l137 870l11 10l147 21l10 -11l-145 -909q-38 -244 -178 -372t-371 -128q-206 0 -326 106.5t-120 295.5zM608 1604l25 153l10 10h154l10 -10 l-25 -153l-10 -11h-154zM889 1604l24 153l11 10h153l10 -10l-24 -153l-10 -11h-154z" />
<glyph unicode="&#xdd;" horiz-adv-x="978" d="M164 1360l8 12l150 23l12 -9l168 -536l24 -90l49 92l299 508l13 10l182 25l10 -11l-497 -796l-95 -578l-10 -10h-143l-10 10l96 598zM520 1552l162 211l16 9h230l6 -13l-291 -256l-14 -2l-103 39z" />
<glyph unicode="&#xde;" horiz-adv-x="1103" d="M111 10l215 1354l10 10l147 21l11 -11l-48 -286h115q174 0 248 -19q109 -30 178.5 -111.5t69.5 -209.5q0 -224 -132 -368t-352 -144q-94 0 -163.5 28t-85.5 88l-7 -83l-43 -269l-10 -10h-143zM340 432q35 -16 90 -27.5t98 -11.5q146 0 236 72q56 44 88.5 113t32.5 153 q0 217 -250 217h-211z" />
<glyph unicode="&#xdf;" horiz-adv-x="1126" d="M-342 -408l61 109l15 4q28 -29 102 -29q78 0 139.5 60.5t81.5 185.5l197 1239q18 108 78 184t139.5 110t171.5 34q84 0 155 -27.5t119 -90t48 -150.5q0 -77 -31 -142t-74.5 -110t-87.5 -86.5t-75 -91t-31 -103.5q0 -31 20 -54t52 -38t70.5 -29.5t77 -34.5t70.5 -47 t52 -73t20 -107q0 -89 -35 -156t-93 -103.5t-122.5 -53.5t-134.5 -17q-50 0 -98.5 10t-81.5 23.5t-58.5 27.5t-38.5 24l-12 10l-2 14l74 98l12 2q11 -8 29.5 -19.5t72 -30.5t101.5 -19q39 0 77 10.5t72.5 32t56 59.5t21.5 88q0 35 -19.5 61t-50.5 43t-69 32.5t-76 34t-69 42 t-50.5 62t-19.5 88.5q0 58 16 109t42 88t57 70.5t62.5 63t57.5 59t42 65.5t16 75q0 69 -49.5 110.5t-120.5 41.5q-82 0 -147 -48t-78 -133l-201 -1259q-30 -183 -124.5 -282t-254.5 -99q-51 0 -93.5 12.5t-59.5 24.5l-17 12z" />
<glyph unicode="&#xe0;" horiz-adv-x="1011" d="M84 260q0 34 6 72l55 352q26 170 135 261t281 91q56 0 110 -16t79 -32l26 -15l135 37l9 -13l-123 -761q-4 -20 -4 -35q0 -36 22 -50t45 -14h8l9 -12l-64 -123l-12 -8h-15q-10 0 -21.5 1.5t-34 9.5t-40.5 22t-33.5 42t-19.5 66q-3 -7 -8 -17.5t-27.5 -38t-51 -48.5 t-80 -38.5t-112.5 -17.5q-131 0 -202.5 79.5t-71.5 205.5zM244 293q0 -178 182 -178q24 0 75.5 13.5t90.5 27.5l39 14l80 492q6 35 6 71q0 84 -38 124t-134 40q-95 0 -161.5 -65t-86.5 -183l-47 -289q-6 -38 -6 -67zM330 1423l6 13h219l14 -6l125 -213l-6 -13l-98 -39l-15 2 z" />
<glyph unicode="&#xe1;" horiz-adv-x="1011" d="M84 260q0 34 6 72l55 352q26 170 135 261t281 91q56 0 110 -16t79 -32l26 -15l135 37l9 -13l-123 -761q-4 -20 -4 -35q0 -36 22 -50t45 -14h8l9 -12l-64 -123l-12 -8h-15q-10 0 -21.5 1.5t-34 9.5t-40.5 22t-33.5 42t-19.5 66q-3 -7 -8 -17.5t-27.5 -38t-51 -48.5 t-80 -38.5t-112.5 -17.5q-131 0 -202.5 79.5t-71.5 205.5zM244 293q0 -178 182 -178q24 0 75.5 13.5t90.5 27.5l39 14l80 492q6 35 6 71q0 84 -38 124t-134 40q-95 0 -161.5 -65t-86.5 -183l-47 -289q-6 -38 -6 -67zM463 1217l162 210l16 9h229l7 -13l-291 -256l-15 -2 l-102 39z" />
<glyph unicode="&#xe2;" horiz-adv-x="1011" d="M84 260q0 34 6 72l55 352q26 170 135 261t281 91q56 0 110 -16t79 -32l26 -15l135 37l9 -13l-123 -761q-4 -20 -4 -35q0 -36 22 -50t45 -14h8l9 -12l-64 -123l-12 -8h-15q-10 0 -21.5 1.5t-34 9.5t-40.5 22t-33.5 42t-19.5 66q-3 -7 -8 -17.5t-27.5 -38t-51 -48.5 t-80 -38.5t-112.5 -17.5q-131 0 -202.5 79.5t-71.5 205.5zM244 293q0 -178 182 -178q24 0 75.5 13.5t90.5 27.5l39 14l80 492q6 35 6 71q0 84 -38 124t-134 40q-95 0 -161.5 -65t-86.5 -183l-47 -289q-6 -38 -6 -67zM311 1217l224 213l14 6h139l14 -6l156 -213l-6 -15 l-121 -39l-14 6l-107 156l-161 -156l-15 -6l-117 39z" />
<glyph unicode="&#xe3;" horiz-adv-x="1011" d="M84 260q0 34 6 72l55 352q26 170 135 261t281 91q56 0 110 -16t79 -32l26 -15l135 37l9 -13l-123 -761q-4 -20 -4 -35q0 -36 22 -50t45 -14h8l9 -12l-64 -123l-12 -8h-15q-10 0 -21.5 1.5t-34 9.5t-40.5 22t-33.5 42t-19.5 66q-3 -7 -8 -17.5t-27.5 -38t-51 -48.5 t-80 -38.5t-112.5 -17.5q-131 0 -202.5 79.5t-71.5 205.5zM244 293q0 -178 182 -178q24 0 75.5 13.5t90.5 27.5l39 14l80 492q6 35 6 71q0 84 -38 124t-134 40q-95 0 -161.5 -65t-86.5 -183l-47 -289q-6 -38 -6 -67zM303 1286v14q56 64 100.5 90.5t108.5 26.5 q37 0 67.5 -14.5t47 -31.5t38.5 -31.5t44 -14.5q20 0 47 16.5t44 32.5l17 17l14 -2l62 -70v-14q-51 -62 -98 -88.5t-113 -26.5q-36 0 -66 14t-46.5 31t-38.5 31t-44 14q-21 0 -48 -16.5t-43 -33.5l-17 -16l-14 3z" />
<glyph unicode="&#xe4;" horiz-adv-x="1011" d="M84 260q0 34 6 72l55 352q26 170 135 261t281 91q56 0 110 -16t79 -32l26 -15l135 37l9 -13l-123 -761q-4 -20 -4 -35q0 -36 22 -50t45 -14h8l9 -12l-64 -123l-12 -8h-15q-10 0 -21.5 1.5t-34 9.5t-40.5 22t-33.5 42t-19.5 66q-3 -7 -8 -17.5t-27.5 -38t-51 -48.5 t-80 -38.5t-112.5 -17.5q-131 0 -202.5 79.5t-71.5 205.5zM244 293q0 -178 182 -178q24 0 75.5 13.5t90.5 27.5l39 14l80 492q6 35 6 71q0 84 -38 124t-134 40q-95 0 -161.5 -65t-86.5 -183l-47 -289q-6 -38 -6 -67zM373 1268l24 153l11 11h153l10 -11l-24 -153l-10 -11 h-154zM653 1268l25 153l10 11h154l10 -11l-25 -153l-10 -11h-153z" />
<glyph unicode="&#xe5;" horiz-adv-x="1011" d="M84 260q0 34 6 72l55 352q26 170 135 261t281 91q56 0 110 -16t79 -32l26 -15l135 37l9 -13l-123 -761q-4 -20 -4 -35q0 -36 22 -50t45 -14h8l9 -12l-64 -123l-12 -8h-15q-10 0 -21.5 1.5t-34 9.5t-40.5 22t-33.5 42t-19.5 66q-3 -7 -8 -17.5t-27.5 -38t-51 -48.5 t-80 -38.5t-112.5 -17.5q-131 0 -202.5 79.5t-71.5 205.5zM244 293q0 -178 182 -178q24 0 75.5 13.5t90.5 27.5l39 14l80 492q6 35 6 71q0 84 -38 124t-134 40q-95 0 -161.5 -65t-86.5 -183l-47 -289q-6 -38 -6 -67zM442 1274q0 56 19 96q23 43 67 66.5t95 23.5 q63 0 108 -28.5t45 -83.5q0 -78 -41 -125q-52 -58 -137 -58q-62 0 -109 27.5t-47 81.5zM532 1296q0 -51 64 -51q38 0 64 19.5t26 62.5q0 53 -68 53q-38 0 -62 -21t-24 -63z" />
<glyph unicode="&#xe6;" horiz-adv-x="1452" d="M43 238q0 77 24.5 137t64 98t95 62.5t112.5 35t122 11.5l98 2q56 0 88 20l17 90q4 36 4 51q0 80 -46.5 112t-127.5 32q-58 0 -114.5 -14.5t-83.5 -28.5l-28 -15l-14 7l-53 104l6 14q5 3 14 8.5t39.5 19.5t64 24.5t84.5 19t103 8.5q208 0 268 -125q112 125 289 125 q152 0 229.5 -74t77.5 -188q0 -88 -32 -155t-86 -106t-117.5 -58t-134.5 -19q-57 0 -102.5 14.5t-69.5 36.5t-35 36t-15 24l-2 -76l-16 -109q-6 -35 -6 -67q0 -180 180 -180q46 0 92 13.5t78.5 32.5t58 38.5t37.5 32.5l13 14l14 2l78 -92v-15q-6 -7 -16.5 -18t-47 -39.5 t-77.5 -50.5t-106 -40t-134 -18q-115 0 -199.5 47.5t-116.5 135.5q-4 -7 -12 -19.5t-35.5 -44t-59.5 -55.5t-84.5 -44t-109.5 -20q-113 0 -191.5 71.5t-78.5 191.5zM203 250q0 -54 36 -92.5t113 -38.5q46 0 107.5 21.5t100.5 43.5l38 21q-4 25 -4 37q0 47 8 88l35 205 q-25 -53 -74.5 -73t-116.5 -26l-43 -4q-86 -8 -143 -52t-57 -130zM805 610q34 -32 201 -32q29 0 56.5 5t57 18t51 33.5t35 55t13.5 78.5q0 55 -40 91t-124 36q-113 0 -169.5 -59t-74.5 -183z" />
<glyph unicode="&#xe7;" horiz-adv-x="909" d="M88 274q0 45 10 103l47 307q24 159 131.5 255.5t286.5 96.5q54 0 103.5 -11t81 -26.5t55.5 -31t35 -26.5l10 -11l2 -15l-84 -94l-14 -2l-8.5 8.5t-24 19t-40 23.5t-56.5 18.5t-72 8.5q-112 0 -173.5 -61.5t-80.5 -184.5l-45 -289q-6 -34 -6 -67q0 -88 46 -134t132 -46 q46 0 92 13.5t78 32.5t57.5 38.5t38.5 32.5l12 14l15 2l78 -92v-15q-5 -6 -14.5 -16t-42 -36t-68 -47t-92.5 -40.5t-117 -24.5q47 -59 47 -122q0 -96 -75.5 -155.5t-168.5 -59.5q-46 0 -94.5 17t-75.5 44l-2 14l41 74l14 6q45 -33 97 -33q74 0 112.5 43.5t38.5 108.5 q0 18 -10 63q-134 6 -215.5 78.5t-81.5 218.5z" />
<glyph unicode="&#xe8;" horiz-adv-x="937" d="M88 274q0 45 10 103l45 299q25 170 131 265t281 95q152 0 229.5 -74t77.5 -188q0 -88 -32 -155t-86 -106t-117.5 -58t-134.5 -19q-48 0 -88 11t-62.5 25.5t-40 33t-23 27.5t-8.5 16l-2 -78l-16 -109q-6 -34 -6 -67q0 -88 46 -134t132 -46q46 0 92 13.5t78 32.5t57.5 38.5 t38.5 32.5l12 14l15 2l78 -92v-15q-6 -7 -16.5 -18t-46.5 -39.5t-76.5 -50.5t-105 -40t-132.5 -18q-147 0 -238.5 73t-91.5 226zM291 610q38 -35 201 -35q37 0 71 9t66.5 29t52.5 60t20 95t-39.5 91t-121.5 36q-113 0 -169.5 -59t-74.5 -183zM330 1423l6 13h219l14 -6 l125 -213l-6 -13l-98 -39l-15 2z" />
<glyph unicode="&#xe9;" horiz-adv-x="937" d="M88 274q0 45 10 103l45 299q25 170 131 265t281 95q152 0 229.5 -74t77.5 -188q0 -88 -32 -155t-86 -106t-117.5 -58t-134.5 -19q-48 0 -88 11t-62.5 25.5t-40 33t-23 27.5t-8.5 16l-2 -78l-16 -109q-6 -34 -6 -67q0 -88 46 -134t132 -46q46 0 92 13.5t78 32.5t57.5 38.5 t38.5 32.5l12 14l15 2l78 -92v-15q-6 -7 -16.5 -18t-46.5 -39.5t-76.5 -50.5t-105 -40t-132.5 -18q-147 0 -238.5 73t-91.5 226zM291 610q38 -35 201 -35q37 0 71 9t66.5 29t52.5 60t20 95t-39.5 91t-121.5 36q-113 0 -169.5 -59t-74.5 -183zM463 1217l162 210l16 9h229 l7 -13l-291 -256l-15 -2l-102 39z" />
<glyph unicode="&#xea;" horiz-adv-x="937" d="M88 274q0 45 10 103l45 299q25 170 131 265t281 95q152 0 229.5 -74t77.5 -188q0 -88 -32 -155t-86 -106t-117.5 -58t-134.5 -19q-48 0 -88 11t-62.5 25.5t-40 33t-23 27.5t-8.5 16l-2 -78l-16 -109q-6 -34 -6 -67q0 -88 46 -134t132 -46q46 0 92 13.5t78 32.5t57.5 38.5 t38.5 32.5l12 14l15 2l78 -92v-15q-6 -7 -16.5 -18t-46.5 -39.5t-76.5 -50.5t-105 -40t-132.5 -18q-147 0 -238.5 73t-91.5 226zM291 610q38 -35 201 -35q37 0 71 9t66.5 29t52.5 60t20 95t-39.5 91t-121.5 36q-113 0 -169.5 -59t-74.5 -183zM311 1217l224 213l14 6h139 l14 -6l156 -213l-6 -15l-121 -39l-14 6l-107 156l-161 -156l-15 -6l-117 39z" />
<glyph unicode="&#xeb;" horiz-adv-x="937" d="M88 274q0 45 10 103l45 299q25 170 131 265t281 95q152 0 229.5 -74t77.5 -188q0 -88 -32 -155t-86 -106t-117.5 -58t-134.5 -19q-48 0 -88 11t-62.5 25.5t-40 33t-23 27.5t-8.5 16l-2 -78l-16 -109q-6 -34 -6 -67q0 -88 46 -134t132 -46q46 0 92 13.5t78 32.5t57.5 38.5 t38.5 32.5l12 14l15 2l78 -92v-15q-6 -7 -16.5 -18t-46.5 -39.5t-76.5 -50.5t-105 -40t-132.5 -18q-147 0 -238.5 73t-91.5 226zM291 610q38 -35 201 -35q37 0 71 9t66.5 29t52.5 60t20 95t-39.5 91t-121.5 36q-113 0 -169.5 -59t-74.5 -183zM373 1268l24 153l11 11h153 l10 -11l-24 -153l-10 -11h-154zM653 1268l25 153l10 11h154l10 -11l-25 -153l-10 -11h-153z" />
<glyph unicode="&#xec;" horiz-adv-x="458" d="M70 10l155 981l11 10l139 21l10 -10l-160 -1002l-10 -10h-135zM74 1423l6 13h219l14 -6l125 -213l-6 -13l-98 -39l-15 2z" />
<glyph unicode="&#xed;" horiz-adv-x="458" d="M70 10l155 981l11 10l139 21l10 -10l-160 -1002l-10 -10h-135zM207 1217l162 210l16 9h229l7 -13l-291 -256l-15 -2l-102 39z" />
<glyph unicode="&#xee;" horiz-adv-x="458" d="M55 1217l224 213l14 6h139l14 -6l156 -213l-6 -15l-121 -39l-14 6l-107 156l-161 -156l-15 -6l-117 39zM70 10l155 981l11 10l139 21l10 -10l-160 -1002l-10 -10h-135z" />
<glyph unicode="&#xef;" horiz-adv-x="458" d="M70 10l155 981l11 10l139 21l10 -10l-160 -1002l-10 -10h-135zM117 1268l24 153l11 11h153l10 -11l-24 -153l-10 -11h-154zM397 1268l25 153l10 11h154l10 -11l-25 -153l-10 -11h-153z" />
<glyph unicode="&#xf0;" horiz-adv-x="980" d="M74 262q0 30 6 68l49 291q29 170 134.5 262t260.5 92q62 0 122 -18.5t97 -51.5l13 66q8 50 8 76q0 94 -41 163l-254 -125l-14 7l-29 94l6 14l213 103q-58 47 -172 98l-6 14l57 98l15 7q150 -59 245 -150l168 82l15 -6l28 -90l-6 -15l-131 -65q53 -86 53 -203 q0 -39 -6 -82l-108 -661q-29 -169 -133.5 -262t-257.5 -93q-144 0 -238 76t-94 211zM236 299q0 -86 44.5 -131t125.5 -45q90 0 155.5 63t85.5 179l41 245q4 23 4 62q0 155 -170 155q-96 0 -159.5 -61t-83.5 -178l-37 -223q-6 -37 -6 -66z" />
<glyph unicode="&#xf1;" horiz-adv-x="1069" d="M100 10l111 692q14 88 14 109q0 30 -19.5 49t-47.5 19h-6l-9 12l64 123l12 8h17q11 0 29.5 -5.5t45.5 -19t48 -46t26 -77.5q3 7 8.5 17.5t29 38.5t52.5 49.5t81.5 39t113.5 17.5q112 0 191 -71t79 -199q0 -24 -8 -82l-66 -395q-12 -68 -12 -84q0 -39 24.5 -53.5 t53.5 -14.5h4l10 -10l-43 -123l-10 -10h-14q-19 0 -38.5 2.5t-47.5 13t-48.5 27.5t-35.5 50.5t-15 78.5q0 18 15 106l61 379q6 43 6 76q0 88 -44 127t-132 39q-50 0 -133 -27l-78 -26l-133 -830l-10 -10h-135zM379 1286v14q56 64 100.5 90.5t108.5 26.5q37 0 67.5 -14.5 t47 -31.5t38 -31.5t43.5 -14.5q20 0 47 16.5t45 32.5l17 17l14 -2l62 -70v-14q-51 -62 -98 -88.5t-113 -26.5q-36 0 -66 14t-46.5 31t-38.5 31t-44 14q-21 0 -48 -16.5t-43 -33.5l-17 -16l-15 3z" />
<glyph unicode="&#xf2;" horiz-adv-x="995" d="M86 266q0 38 6 76l53 342q26 169 139 260.5t285 91.5q147 0 241.5 -76.5t94.5 -214.5q0 -33 -6 -73l-53 -344q-26 -170 -138.5 -261.5t-285.5 -91.5q-146 0 -241 76.5t-95 214.5zM244 293q0 -89 45.5 -133.5t142.5 -44.5q105 0 174 64t88 183l45 289q6 35 6 66 q0 180 -188 180q-110 0 -176.5 -63t-85.5 -183l-45 -289q-6 -37 -6 -69zM342 1423l6 13h219l15 -6l125 -213l-7 -13l-98 -39l-14 2z" />
<glyph unicode="&#xf3;" horiz-adv-x="995" d="M86 266q0 38 6 76l53 342q26 169 139 260.5t285 91.5q147 0 241.5 -76.5t94.5 -214.5q0 -33 -6 -73l-53 -344q-26 -170 -138.5 -261.5t-285.5 -91.5q-146 0 -241 76.5t-95 214.5zM244 293q0 -89 45.5 -133.5t142.5 -44.5q105 0 174 64t88 183l45 289q6 35 6 66 q0 180 -188 180q-110 0 -176.5 -63t-85.5 -183l-45 -289q-6 -37 -6 -69zM475 1217l162 210l16 9h230l6 -13l-291 -256l-14 -2l-103 39z" />
<glyph unicode="&#xf4;" horiz-adv-x="995" d="M86 266q0 38 6 76l53 342q26 169 139 260.5t285 91.5q147 0 241.5 -76.5t94.5 -214.5q0 -33 -6 -73l-53 -344q-26 -170 -138.5 -261.5t-285.5 -91.5q-146 0 -241 76.5t-95 214.5zM244 293q0 -89 45.5 -133.5t142.5 -44.5q105 0 174 64t88 183l45 289q6 35 6 66 q0 180 -188 180q-110 0 -176.5 -63t-85.5 -183l-45 -289q-6 -37 -6 -69zM324 1217l223 213l14 6h139l15 -6l155 -213l-6 -15l-121 -39l-14 6l-106 156l-162 -156l-15 -6l-116 39z" />
<glyph unicode="&#xf5;" horiz-adv-x="995" d="M86 266q0 38 6 76l53 342q26 169 139 260.5t285 91.5q147 0 241.5 -76.5t94.5 -214.5q0 -33 -6 -73l-53 -344q-26 -170 -138.5 -261.5t-285.5 -91.5q-146 0 -241 76.5t-95 214.5zM244 293q0 -89 45.5 -133.5t142.5 -44.5q105 0 174 64t88 183l45 289q6 35 6 66 q0 180 -188 180q-110 0 -176.5 -63t-85.5 -183l-45 -289q-6 -37 -6 -69zM315 1286v14q56 64 100.5 90.5t108.5 26.5q37 0 67.5 -14.5t47 -31.5t38.5 -31.5t44 -14.5q20 0 47 16.5t44 32.5l17 17l15 -2l61 -70v-14q-51 -62 -98 -88.5t-113 -26.5q-36 0 -65.5 14t-46.5 31 t-38.5 31t-43.5 14q-21 0 -48 -16.5t-44 -33.5l-17 -16l-14 3z" />
<glyph unicode="&#xf6;" horiz-adv-x="995" d="M86 266q0 38 6 76l53 342q26 169 139 260.5t285 91.5q147 0 241.5 -76.5t94.5 -214.5q0 -33 -6 -73l-53 -344q-26 -170 -138.5 -261.5t-285.5 -91.5q-146 0 -241 76.5t-95 214.5zM244 293q0 -89 45.5 -133.5t142.5 -44.5q105 0 174 64t88 183l45 289q6 35 6 66 q0 180 -188 180q-110 0 -176.5 -63t-85.5 -183l-45 -289q-6 -37 -6 -69zM385 1268l25 153l10 11h153l11 -11l-25 -153l-10 -11h-154zM666 1268l24 153l10 11h154l10 -11l-24 -153l-11 -11h-153z" />
<glyph unicode="&#xf7;" horiz-adv-x="1126" d="M176 434l25 144l10 10h694l8 -13l-59 -143l-12 -8h-656zM354 72l35 192l12 10h187l10 -10l-35 -192l-12 -11h-186zM465 748l35 192l12 10h186l11 -10l-35 -192l-12 -11h-187z" />
<glyph unicode="&#xf8;" horiz-adv-x="989" d="M84 266q0 38 6 76l53 342q26 169 139 260.5t285 91.5q83 0 150 -24l41 71l14 7l90 -33l6 -15l-53 -90q88 -78 88 -207q0 -33 -6 -73l-53 -344q-26 -170 -138.5 -261.5t-285.5 -91.5q-81 0 -154 25l-43 -76l-12 -4l-82 49l-4 15l43 75q-84 78 -84 207zM242 293 q0 -47 12 -84l389 674q-35 14 -88 14q-110 0 -176.5 -63t-85.5 -183l-45 -289q-6 -37 -6 -69zM340 127q38 -12 90 -12q105 0 174 64t88 183l45 289q6 35 6 66q0 40 -14 84z" />
<glyph unicode="&#xf9;" horiz-adv-x="1034" d="M106 260q0 28 7 72l104 659l10 10l140 21l10 -10l-105 -652q-6 -38 -6 -67q0 -178 183 -178q24 0 75.5 13.5t91.5 27.5l39 14l129 821l11 10l139 21l10 -10l-125 -779q-4 -20 -4 -32q0 -36 22.5 -50t45.5 -14h8l8 -12l-63 -123l-13 -8h-14q-10 0 -22 1.5t-34.5 9.5 t-40.5 21.5t-33.5 42t-19.5 66.5q-2 -7 -7.5 -17.5t-28 -38t-51 -48.5t-79.5 -38.5t-112 -17.5q-131 0 -203 79.5t-72 205.5zM350 1423l6 13h219l15 -6l125 -213l-6 -13l-99 -39l-14 2z" />
<glyph unicode="&#xfa;" horiz-adv-x="1034" d="M106 260q0 28 7 72l104 659l10 10l140 21l10 -10l-105 -652q-6 -38 -6 -67q0 -178 183 -178q24 0 75.5 13.5t91.5 27.5l39 14l129 821l11 10l139 21l10 -10l-125 -779q-4 -20 -4 -32q0 -36 22.5 -50t45.5 -14h8l8 -12l-63 -123l-13 -8h-14q-10 0 -22 1.5t-34.5 9.5 t-40.5 21.5t-33.5 42t-19.5 66.5q-2 -7 -7.5 -17.5t-28 -38t-51 -48.5t-79.5 -38.5t-112 -17.5q-131 0 -203 79.5t-72 205.5zM483 1217l162 210l17 9h229l6 -13l-291 -256l-14 -2l-103 39z" />
<glyph unicode="&#xfb;" horiz-adv-x="1034" d="M106 260q0 28 7 72l104 659l10 10l140 21l10 -10l-105 -652q-6 -38 -6 -67q0 -178 183 -178q24 0 75.5 13.5t91.5 27.5l39 14l129 821l11 10l139 21l10 -10l-125 -779q-4 -20 -4 -32q0 -36 22.5 -50t45.5 -14h8l8 -12l-63 -123l-13 -8h-14q-10 0 -22 1.5t-34.5 9.5 t-40.5 21.5t-33.5 42t-19.5 66.5q-2 -7 -7.5 -17.5t-28 -38t-51 -48.5t-79.5 -38.5t-112 -17.5q-131 0 -203 79.5t-72 205.5zM332 1217l223 213l14 6h140l14 -6l156 -213l-7 -15l-120 -39l-15 6l-106 156l-162 -156l-14 -6l-117 39z" />
<glyph unicode="&#xfc;" horiz-adv-x="1034" d="M106 260q0 28 7 72l104 659l10 10l140 21l10 -10l-105 -652q-6 -38 -6 -67q0 -178 183 -178q24 0 75.5 13.5t91.5 27.5l39 14l129 821l11 10l139 21l10 -10l-125 -779q-4 -20 -4 -32q0 -36 22.5 -50t45.5 -14h8l8 -12l-63 -123l-13 -8h-14q-10 0 -22 1.5t-34.5 9.5 t-40.5 21.5t-33.5 42t-19.5 66.5q-2 -7 -7.5 -17.5t-28 -38t-51 -48.5t-79.5 -38.5t-112 -17.5q-131 0 -203 79.5t-72 205.5zM393 1268l25 153l10 11h154l10 -11l-25 -153l-10 -11h-154zM674 1268l24 153l11 11h153l10 -11l-24 -153l-10 -11h-154z" />
<glyph unicode="&#xfd;" horiz-adv-x="913" d="M-180 -375l65 101l15 2l6.5 -6.5t19 -14.5t30.5 -18t41 -14.5t50 -6.5q59 0 106.5 45t92.5 148l71 170l-20 6l-10 10l-189 942l8 12l146 21l12 -8l119 -744l12 -108l49 108l277 527q12 24 12 41q0 25 -20 41.5t-41 23.5l-6 15l73 104l15 6q20 -3 43 -13.5t48 -29 t41.5 -48.5t16.5 -67q0 -57 -35 -118l-417 -758l-41 -103q-55 -144 -113 -225t-116 -109t-138 -28q-115 0 -221 82zM420 1217l162 210l16 9h229l7 -13l-291 -256l-15 -2l-102 39z" />
<glyph unicode="&#xfe;" horiz-adv-x="997" d="M0 -453l303 1909l10 10l140 21l10 -10l-80 -506l-27 -94q6 12 11.5 22t30.5 38t53.5 47t79.5 35.5t110 16.5q112 0 191 -71t79 -199q0 -24 -8 -82l-55 -356q-27 -169 -133 -261t-262 -92q-44 0 -83.5 8t-64.5 19.5t-43.5 23t-26.5 19.5l-8 8l-6 -104l-63 -379l-11 -10 l-137 -23zM274 268q0 -153 175 -153q92 0 161.5 65.5t87.5 181.5l45 289q7 51 7 76q0 88 -45.5 127t-133.5 39q-50 0 -133 -27l-78 -26l-77 -496q-9 -61 -9 -76z" />
<glyph unicode="&#xff;" horiz-adv-x="913" d="M-180 -375l65 101l15 2l6.5 -6.5t19 -14.5t30.5 -18t41 -14.5t50 -6.5q59 0 106.5 45t92.5 148l71 170l-20 6l-10 10l-189 942l8 12l146 21l12 -8l119 -744l12 -108l49 108l277 527q12 24 12 41q0 25 -20 41.5t-41 23.5l-6 15l73 104l15 6q20 -3 43 -13.5t48 -29 t41.5 -48.5t16.5 -67q0 -57 -35 -118l-417 -758l-41 -103q-55 -144 -113 -225t-116 -109t-138 -28q-115 0 -221 82zM330 1268l24 153l11 11h153l10 -11l-24 -153l-10 -11h-154zM610 1268l25 153l10 11h154l10 -11l-25 -153l-10 -11h-153z" />
<glyph unicode="&#x152;" horiz-adv-x="1802" d="M131 381q0 53 8 100l66 418q38 240 190 372t381 132q249 0 346 -141l19 110l10 10h655l9 -12l-23 -135l-12 -8h-498l-68 -422h433l8 -12l-58 -136l-12 -8h-395l-78 -493h500l8 -13l-39 -135l-12 -8h-635l-10 10l16 101q-121 -136 -344 -136q-209 0 -337 107.5t-128 298.5 zM303 412q0 -128 73.5 -204.5t221.5 -76.5q165 0 269.5 92.5t133.5 272.5l62 387q6 43 6 84q0 128 -73.5 204t-221.5 76q-165 0 -269.5 -92t-133.5 -272l-62 -387q-6 -44 -6 -84z" />
<glyph unicode="&#x153;" horiz-adv-x="1536" d="M80 266q0 44 6 74l53 344q26 170 140.5 261t293.5 91q184 0 271 -133q109 133 303 133q152 0 229.5 -74t77.5 -188q0 -88 -32 -155t-86.5 -106t-118 -58t-134.5 -19q-57 0 -102.5 14.5t-69.5 36.5t-34 35.5t-15 24.5l-2 -76l-16 -109q-6 -35 -6 -67q0 -180 180 -180 q46 0 92 13.5t78 32.5t57.5 38.5t38.5 32.5l12 14l15 2l78 -92v-15q-6 -7 -16.5 -18t-47 -39.5t-77.5 -50.5t-106 -40t-134 -18q-193 0 -279 129q-114 -129 -323 -129q-139 0 -232.5 77t-93.5 214zM242 293q0 -178 184 -178q105 0 174 64t88 183l45 289q6 48 6 66 q0 180 -188 180q-106 0 -172.5 -63t-85.5 -183l-45 -289q-6 -37 -6 -69zM883 610q34 -32 200 -32q29 0 56 5t56 18t50.5 33.5t35 55t13.5 78.5q0 55 -39.5 91t-121.5 36q-113 0 -169.5 -59t-74.5 -183z" />
<glyph unicode="&#x178;" horiz-adv-x="978" d="M164 1360l8 12l150 23l12 -9l168 -536l24 -90l49 92l299 508l13 10l182 25l10 -11l-497 -796l-95 -578l-10 -10h-143l-10 10l96 598zM430 1604l25 153l10 10h153l11 -10l-25 -153l-10 -11h-154zM711 1604l24 153l10 10h154l10 -10l-24 -153l-11 -11h-153z" />
<glyph unicode="&#x2c6;" horiz-adv-x="1003" d="M338 1217l223 213l14 6h140l14 -6l156 -213l-6 -15l-121 -39l-15 6l-106 156l-162 -156l-14 -6l-117 39z" />
<glyph unicode="&#x2dc;" horiz-adv-x="1005" d="M330 1286v14q56 64 100.5 90.5t108.5 26.5q37 0 67.5 -14.5t47 -31.5t38 -31.5t43.5 -14.5q20 0 47.5 16.5t44.5 32.5l17 17l14 -2l62 -70v-14q-51 -62 -98 -88.5t-113 -26.5q-36 0 -66 14t-46.5 31t-38.5 31t-44 14q-21 0 -48 -16.5t-44 -33.5l-16 -16l-15 3z" />
<glyph unicode="&#x2000;" horiz-adv-x="898" />
<glyph unicode="&#x2001;" horiz-adv-x="1796" />
<glyph unicode="&#x2002;" horiz-adv-x="898" />
<glyph unicode="&#x2003;" horiz-adv-x="1796" />
<glyph unicode="&#x2004;" horiz-adv-x="598" />
<glyph unicode="&#x2005;" horiz-adv-x="449" />
<glyph unicode="&#x2006;" horiz-adv-x="299" />
<glyph unicode="&#x2007;" horiz-adv-x="299" />
<glyph unicode="&#x2008;" horiz-adv-x="224" />
<glyph unicode="&#x2009;" horiz-adv-x="359" />
<glyph unicode="&#x200a;" horiz-adv-x="99" />
<glyph unicode="&#x2010;" horiz-adv-x="827" d="M150 459l24 143l10 10h500l8 -12l-59 -143l-12 -8h-461z" />
<glyph unicode="&#x2011;" horiz-adv-x="827" d="M150 459l24 143l10 10h500l8 -12l-59 -143l-12 -8h-461z" />
<glyph unicode="&#x2012;" horiz-adv-x="827" d="M150 459l24 143l10 10h500l8 -12l-59 -143l-12 -8h-461z" />
<glyph unicode="&#x2013;" horiz-adv-x="1290" d="M156 465l18 129l10 10h955l8 -12l-45 -129l-12 -8h-924z" />
<glyph unicode="&#x2014;" horiz-adv-x="1675" d="M156 465l18 129l10 10h1340l8 -12l-45 -129l-12 -8h-1309z" />
<glyph unicode="&#x2018;" horiz-adv-x="432" d="M156 1024l233 365l14 6l68 -23l8 -12l-112 -338l-11 -10h-192z" />
<glyph unicode="&#x2019;" horiz-adv-x="409" d="M172 1034l113 338l10 10h192l9 -12l-234 -364l-14 -7l-68 23z" />
<glyph unicode="&#x201a;" horiz-adv-x="468" d="M-20 -154l112 338l10 11h193l8 -13l-233 -364l-15 -6l-67 22z" />
<glyph unicode="&#x201c;" horiz-adv-x="729" d="M156 1024l233 365l14 6l68 -23l8 -12l-112 -338l-11 -10h-192zM455 1024l233 365l14 6l68 -23l8 -12l-112 -338l-11 -10h-192z" />
<glyph unicode="&#x201d;" horiz-adv-x="708" d="M172 1034l113 338l10 10h192l9 -12l-234 -364l-14 -7l-68 23zM471 1034l113 338l10 10h192l9 -12l-234 -364l-14 -7l-68 23z" />
<glyph unicode="&#x201e;" horiz-adv-x="768" d="M-20 -154l112 338l10 11h193l8 -13l-233 -364l-15 -6l-67 22zM279 -154l112 338l10 11h193l8 -13l-233 -364l-15 -6l-67 22z" />
<glyph unicode="&#x2022;" horiz-adv-x="989" d="M145 471v74q0 75 30.5 135.5t81 97.5t111 56.5t124.5 19.5q89 0 166.5 -33t130.5 -105t53 -171v-74q0 -76 -30.5 -136t-81 -96t-111.5 -54.5t-127 -18.5q-64 0 -124.5 18.5t-111 54.5t-81 96t-30.5 136z" />
<glyph unicode="&#x2026;" horiz-adv-x="1603" d="M51 10l35 193l12 10h187l10 -10l-35 -193l-12 -10h-187zM618 10l35 193l13 10h186l10 -10l-35 -193l-12 -10h-186zM1186 10l35 193l12 10h186l11 -10l-35 -193l-13 -10h-186z" />
<glyph unicode="&#x202f;" horiz-adv-x="359" />
<glyph unicode="&#x2039;" horiz-adv-x="620" d="M84 498l2 12l324 397l12 8h162l8 -12l-348 -405l194 -383l-6 -15h-143l-15 6z" />
<glyph unicode="&#x203a;" horiz-adv-x="618" d="M25 113l348 405l-195 383l6 14h144l14 -6l190 -391l-2 -12l-323 -397l-12 -9h-162z" />
<glyph unicode="&#x205f;" horiz-adv-x="449" />
<glyph unicode="&#x20ac;" horiz-adv-x="1153" d="M82 385l20 119l11 10h120l23 143h-117l-10 11l21 118l10 11h127q59 193 202.5 297t337.5 104q60 0 114 -8t88.5 -20t60.5 -24t38 -20l11 -8l6 -14l-60 -113l-14 -4q-3 3 -9.5 7.5t-29.5 16t-49 20.5t-67.5 16.5t-86.5 7.5q-141 0 -239 -67t-144 -191h555l9 -13l-52 -118 l-12 -9h-534l-23 -143h500l8 -12l-51 -119l-12 -8h-455q7 -124 85.5 -190t213.5 -66q70 0 140 23t105 46l35 23l15 -6l18 -113l-6 -14q-4 -4 -13 -11t-38.5 -25t-63 -31.5t-87 -24.5t-109.5 -11q-206 0 -331.5 103.5t-125.5 294.5v2h-125z" />
<glyph unicode="&#x2122;" horiz-adv-x="1650" d="M156 1276v96l10 10h571l8 -10l-26 -96l-12 -10h-199v-535l-10 -10h-107l-10 10v535h-215zM821 731v641l10 10l99 13l14 -11l258 -462l254 450l10 10l101 13l14 -11v-653l-10 -10h-109l-8 10v399l-194 -342l-15 -10h-92l-12 10l-193 351v-408l-10 -10h-107z" />
<glyph unicode="&#x25fc;" horiz-adv-x="1024" d="M0 0v1024h1024v-1024h-1024z" />
</font>
</defs>
</svg>
